<?xml version="1.0" standalone="yes"?>
<svg xmlns="http://www.w3.org/2000/svg" width="560" height="300">
<path style="fill:#fefefe; stroke:none;" d="M0 0L0 300L560 300L560 0L0 0z"/>
<path style="fill:#dedede; stroke:none;" d="M128 13C129.248 13.6848 129.548 13.7488 131 14C129.752 13.3152 129.452 13.2512 128 13z"/>
<path style="fill:#b6b6b6; stroke:none;" d="M131.667 13.3333C131.222 13.7779 132.278 13.7221 132.333 13.6667C132.778 13.2224 131.722 13.2777 131.667 13.3333z"/>
<path style="fill:#989898; stroke:none;" d="M133 13C138.222 15.1914 145.368 14 151 14C145.778 11.8086 138.632 13 133 13z"/>
<path style="fill:#cacaca; stroke:none;" d="M151 13C152.769 13.7789 154.036 13.9124 156 14C154.231 13.221 152.964 13.0876 151 13z"/>
<path style="fill:#dcdcdc; stroke:none;" d="M113 14C114.248 14.6848 114.548 14.7488 116 15C114.752 14.3152 114.452 14.2512 113 14z"/>
<path style="fill:#b4b4b4; stroke:none;" d="M116 14C117.248 14.6848 117.548 14.7488 119 15C117.752 14.3152 117.452 14.2512 116 14z"/>
<path style="fill:#8c8c8c; stroke:none;" d="M119 14C120.248 14.6848 120.548 14.7488 122 15C120.752 14.3152 120.452 14.2512 119 14z"/>
<path style="fill:#646464; stroke:none;" d="M122.667 14.3333C122.222 14.7777 123.278 14.7222 123.333 14.6667C123.778 14.2222 122.722 14.2778 122.667 14.3333z"/>
<path style="fill:#333333; stroke:none;" d="M80 17C88.2181 22.0273 98.7791 20 108 20L161 20C168.469 20 177.919 21.947 185 20C176.883 13.952 161.786 14.0038 152 14C127.897 13.9908 104.028 17 80 17z"/>
<path style="fill:#545454; stroke:none;" d="M161 14C162.506 14.683 163.315 14.8259 165 15C163.494 14.317 162.685 14.1741 161 14z"/>
<path style="fill:#b1b1b1; stroke:none;" d="M165.667 14.3333C165.222 14.7779 166.278 14.7221 166.333 14.6667C166.778 14.2223 165.722 14.2778 165.667 14.3333z"/>
<path style="fill:#cfcfcf; stroke:none;" d="M96 15C97.7691 15.7789 99.0359 15.9124 101 16C99.231 15.2211 97.9641 15.0876 96 15z"/>
<path style="fill:#aeaeae; stroke:none;" d="M101 15C102.248 15.6848 102.548 15.7488 104 16C102.752 15.3152 102.452 15.2512 101 15z"/>
<path style="fill:#8c8c8c; stroke:none;" d="M104.667 15.3333C104.222 15.7776 105.278 15.7223 105.333 15.6667C105.778 15.2222 104.722 15.2778 104.667 15.3333z"/>
<path style="fill:#717171; stroke:none;" d="M106 15C107.248 15.6848 107.548 15.7488 109 16C107.752 15.3152 107.452 15.2512 106 15z"/>
<path style="fill:#919191; stroke:none;" d="M170 15C171.248 15.6848 171.548 15.7488 173 16C171.752 15.3152 171.452 15.2512 170 15z"/>
<path style="fill:#b8b8b8; stroke:none;" d="M73 16L73 37C75.4972 32.9867 75.4972 20.0133 73 16z"/>
<path style="fill:#a8a8a8; stroke:none;" d="M76 16C78.18 17.1868 79.5136 17.2342 82 17C79.9479 16.1258 78.2528 16.0472 76 16z"/>
<path style="fill:#808080; stroke:none;" d="M82 16C84.6127 17.0977 87.1645 16.9928 90 17C87.3873 15.9023 84.8355 16.0072 82 16z"/>
<path style="fill:#5b5b5b; stroke:none;" d="M90 16C91.2483 16.6848 91.5485 16.7488 93 17C91.7516 16.3152 91.4516 16.2512 90 16z"/>
<path style="fill:#919191; stroke:none;" d="M176.667 16.3333C176.222 16.7779 177.278 16.7221 177.333 16.6667C177.778 16.2224 176.722 16.2777 176.667 16.3333z"/>
<path style="fill:#cccccc; stroke:none;" d="M178 16L179 17L178 16z"/>
<path style="fill:#8d8d8d; stroke:none;" d="M180 17L181 18L180 17z"/>
<path style="fill:#919191; stroke:none;" d="M233 17C234.248 17.6848 234.548 17.7488 236 18C234.752 17.3152 234.452 17.2512 233 17z"/>
<path style="fill:#d0d0d0; stroke:none;" d="M236 17C237.248 17.6848 237.548 17.7488 239 18C237.752 17.3152 237.452 17.2512 236 17z"/>
<path style="fill:#a9a9a9; stroke:none;" d="M82 18L83 19L82 18z"/>
<path style="fill:#949494; stroke:none;" d="M183 18L184 19L183 18z"/>
<path style="fill:#cbcbcb; stroke:none;" d="M190 18L190 98C194.096 90.3515 194.664 80.4919 195.039 72C195.57 59.9809 196.165 48.9967 194.428 37C193.502 30.6006 193.462 23.6681 190 18z"/>
<path style="fill:#c9c9c9; stroke:none;" d="M235 18L236 19L235 18z"/>
<path style="fill:#888888; stroke:none;" d="M236 18C239.148 19.7656 242.412 20.6424 246 21C242.843 18.9167 239.758 18.1929 236 18z"/>
<path style="fill:#bebebe; stroke:none;" d="M77 20C80.4324 21.4403 84.2998 21 88 21C84.6731 19.0999 80.7741 19.9713 77 20z"/>
<path style="fill:#666666; stroke:none;" d="M86 19L87 20L86 19z"/>
<path style="fill:#464646; stroke:none;" d="M184 20C185.769 20.7789 187.036 20.9124 189 21C187.072 19.9091 186.23 19.8346 184 20z"/>
<path style="fill:#9d9d9d; stroke:none;" d="M186 19L187 20L186 19z"/>
<path style="fill:#ababab; stroke:none;" d="M231 20C234.432 21.4403 238.3 21 242 21C238.633 18.9049 234.862 19.9228 231 20z"/>
<path style="fill:#c1c1c1; stroke:none;" d="M243 19L244 20L243 19z"/>
<path style="fill:#535353; stroke:none;" d="M74 20L74 33C76.0089 28.8116 76.0089 24.1884 74 20z"/>
<path style="fill:#7f7f7f; stroke:none;" d="M88 20L89 21L88 20z"/>
<path style="fill:#262626; stroke:none;" d="M91 20C98.3995 23.1049 109.993 21 118 21L179 21C171.6 17.8951 160.007 20 152 20L91 20z"/>
<path style="fill:#7e7e7e; stroke:none;" d="M189 20L190 21L189 20z"/>
<path style="fill:#d2d2d2; stroke:none;" d="M227 20L227 220C229.096 216.104 228.007 211.335 228 207L228 177L228 67L228 34C228.008 29.3332 229.375 24.169 227 20z"/>
<path style="fill:#afafaf; stroke:none;" d="M246 20L246 220C253.189 205.071 250 184.092 250 168L250 70C250 54.026 252.708 34.9368 246 20z"/>
<path style="fill:#404040; stroke:none;" d="M77 21L77 32C78.4309 28.59 78.4309 24.41 77 21z"/>
<path style="fill:#000000; stroke:none;" d="M78 21L78 32C98.7326 32 119.23 29.9667 140 30C151.693 30.0188 163.243 32 175 32C175 44.3881 176.821 56.6951 176.821 69C176.821 79.32 175 89.6131 175 100L190 100L190 21L78 21z"/>
<path style="fill:#414141; stroke:none;" d="M231 21L231 219C232.875 214.531 232 208.809 232 204L232 175L232 71L232 37C232 31.9198 232.981 25.7199 231 21z"/>
<path style="fill:#000000; stroke:none;" d="M232 21L232 219L246 219L246 21L232 21z"/>
<path style="fill:#aaaaaa; stroke:none;" d="M75 22L75 25C75.6961 23.4463 75.6961 23.5537 75 22z"/>
<path style="fill:#c9c9c9; stroke:none;" d="M247.333 24.6667C247.278 24.7221 247.222 25.7779 247.667 25.3333C247.722 25.2777 247.778 24.2223 247.333 24.6667z"/>
<path style="fill:#a7a7a7; stroke:none;" d="M228 25L228 216C234.328 204.101 231 185.092 231 172L231 72L231 45C231 38.2317 231.283 31.1297 228 25z"/>
<path style="fill:#cecece; stroke:none;" d="M229 26L229 29C229.696 27.4463 229.696 27.5537 229 26z"/>
<path style="fill:#d5d5d5; stroke:none;" d="M248 27L248 30C248.696 28.4463 248.696 28.5537 248 27z"/>
<path style="fill:#a2a2a2; stroke:none;" d="M75 28L75 31C75.6961 29.4463 75.6961 29.5537 75 28z"/>
<path style="fill:#0d0d0d; stroke:none;" d="M110 30C112.89 31.213 115.874 30.9983 119 31C116.11 29.787 113.126 30.0017 110 30z"/>
<path style="fill:#272727; stroke:none;" d="M81 33C87.9196 37.9301 98.8363 37.5273 107 38.0895C128.814 39.5917 150.207 36.06 172 36C164.178 31.7495 155.577 31.6464 147 30.8302C131.806 29.3843 116.217 30.0229 101 31.0895C94.2232 31.5645 87.8665 33 81 33z"/>
<path style="fill:#161616; stroke:none;" d="M144 30C145.769 30.7789 147.036 30.9124 149 31C147.231 30.2211 145.964 30.0876 144 30z"/>
<path style="fill:#d6d6d6; stroke:none;" d="M230 30L230 33C230.696 31.4463 230.696 31.5537 230 30z"/>
<path style="fill:#dcdcdc; stroke:none;" d="M249.333 31.6667C249.278 31.7221 249.222 32.7779 249.667 32.3333C249.722 32.2777 249.778 31.2223 249.333 31.6667z"/>
<path style="fill:#535353; stroke:none;" d="M77 32C79.6884 33.4484 81.9804 33.2451 85 33C82.3873 31.9023 79.8355 32.0072 77 32z"/>
<path style="fill:#434343; stroke:none;" d="M85 32C87.6127 33.0977 90.1645 32.9928 93 33C90.3873 31.9023 87.8355 32.0072 85 32z"/>
<path style="fill:#606060; stroke:none;" d="M161.667 32.3333C161.222 32.7779 162.278 32.7221 162.333 32.6667C162.778 32.2224 161.722 32.2778 161.667 32.3333z"/>
<path style="fill:#7f7f7f; stroke:none;" d="M163 32C166.532 34.0175 170.986 33.0106 175 33C171.303 31.4485 166.983 32 163 32z"/>
<path style="fill:#b0b0b0; stroke:none;" d="M79 33L80 34L79 33z"/>
<path style="fill:#bababa; stroke:none;" d="M166 33L167 34L166 33z"/>
<path style="fill:#fefefe; stroke:none;" d="M167 33C169.227 34.2581 171.597 35.096 174 36C171.681 39.6207 173.407 42.9625 174 47C175.769 42.7834 175 37.5412 175 33L167 33z"/>
<path style="fill:#dddddd; stroke:none;" d="M194 33L194 38C194.83 35.9695 194.83 35.0305 194 33z"/>
<path style="fill:#969696; stroke:none;" d="M82 34L83 35L82 34z"/>
<path style="fill:#575757; stroke:none;" d="M168 34L169 35L168 34z"/>
<path style="fill:#919191; stroke:none;" d="M169 34L170 35L169 34z"/>
<path style="fill:#cecece; stroke:none;" d="M170 34L171 35L170 34z"/>
<path style="fill:#9d9d9d; stroke:none;" d="M85 35L86 36L85 35z"/>
<path style="fill:#5e5e5e; stroke:none;" d="M86 35L87 36L86 35z"/>
<path style="fill:#939393; stroke:none;" d="M166 36C167.769 36.7789 169.036 36.9124 171 37L171 41L174 36C171.305 35.7024 168.717 35.903 166 36z"/>
<path style="fill:#828282; stroke:none;" d="M89.6667 36.3333C89.2223 36.7777 90.2778 36.7222 90.3333 36.6667C90.7778 36.2222 89.7222 36.2778 89.6667 36.3333z"/>
<path style="fill:#545454; stroke:none;" d="M91 36L92 37L91 36z"/>
<path style="fill:#515151; stroke:none;" d="M163 36C164.248 36.6848 164.548 36.7488 166 37C164.752 36.3152 164.452 36.2512 163 36z"/>
<path style="fill:#808080; stroke:none;" d="M94.6667 37.3333C94.2223 37.7777 95.2778 37.7222 95.3333 37.6667C95.7778 37.2222 94.7222 37.2778 94.6667 37.3333z"/>
<path style="fill:#444444; stroke:none;" d="M96.6667 37.3333C96.2223 37.7777 97.2778 37.7222 97.3333 37.6667C97.7778 37.2222 96.7222 37.2778 96.6667 37.3333z"/>
<path style="fill:#4c4c4c; stroke:none;" d="M145.667 37.3333C145.222 37.7778 146.278 37.7222 146.333 37.6667C146.778 37.2223 145.722 37.2777 145.667 37.3333z"/>
<path style="fill:#6a6a6a; stroke:none;" d="M147 37C148.248 37.6848 148.548 37.7488 150 38C148.752 37.3152 148.452 37.2512 147 37z"/>
<path style="fill:#979797; stroke:none;" d="M150 37C151.248 37.6848 151.548 37.7488 153 38C151.752 37.3152 151.452 37.2512 150 37z"/>
<path style="fill:#d4d4d4; stroke:none;" d="M153 37C154.769 37.7789 156.036 37.9124 158 38C156.231 37.2211 154.964 37.0876 153 37z"/>
<path style="fill:#c9c9c9; stroke:none;" d="M100.667 38.3333C100.222 38.7777 101.278 38.7222 101.333 38.6667C101.778 38.2222 100.722 38.2778 100.667 38.3333z"/>
<path style="fill:#9f9f9f; stroke:none;" d="M102 38C103.248 38.6848 103.548 38.7488 105 39C103.752 38.3152 103.452 38.2512 102 38z"/>
<path style="fill:#636363; stroke:none;" d="M105.667 38.3333C105.222 38.7777 106.278 38.7222 106.333 38.6667C106.778 38.2222 105.722 38.2778 105.667 38.3333z"/>
<path style="fill:#383838; stroke:none;" d="M107 38C108.506 38.683 109.315 38.8259 111 39C109.494 38.317 108.685 38.1741 107 38z"/>
<path style="fill:#4b4b4b; stroke:none;" d="M129 38C130.248 38.6848 130.548 38.7488 132 39C130.752 38.3152 130.452 38.2512 129 38z"/>
<path style="fill:#676767; stroke:none;" d="M132.667 38.3333C132.222 38.7779 133.278 38.7221 133.333 38.6667C133.778 38.2224 132.722 38.2777 132.667 38.3333z"/>
<path style="fill:#848484; stroke:none;" d="M134.667 38.3333C134.222 38.7779 135.278 38.7221 135.333 38.6667C135.778 38.2224 134.722 38.2777 134.667 38.3333z"/>
<path style="fill:#a0a0a0; stroke:none;" d="M136 38C137.248 38.6848 137.548 38.7488 139 39C137.752 38.3152 137.452 38.2512 136 38z"/>
<path style="fill:#cccccc; stroke:none;" d="M139 38C140.248 38.6848 140.548 38.7488 142 39C140.752 38.3152 140.452 38.2512 139 38z"/>
<path style="fill:#dadada; stroke:none;" d="M116 39C118.052 39.8742 119.747 39.9528 122 40C119.948 39.1258 118.253 39.0472 116 39z"/>
<path style="fill:#a6a6a6; stroke:none;" d="M172 40C170.054 46.5837 171 54.1658 171 61L171 99C173.414 94.5133 172 88.0277 172 83L172 54C172 49.5434 173.022 44.256 172 40z"/>
<path style="fill:#c4c4c4; stroke:none;" d="M250 40L250 55C251.74 50.8523 251.74 44.1477 250 40z"/>
<path style="fill:#8f8f8f; stroke:none;" d="M172 42L172 95C177.749 84.2651 176.724 67.717 175.285 56C174.683 51.1032 174.634 46.3118 172 42z"/>
<path style="fill:#c2c2c2; stroke:none;" d="M173.333 43.6667C173.278 43.7223 173.222 44.7777 173.667 44.3333C173.722 44.2779 173.778 43.2222 173.333 43.6667z"/>
<path style="fill:#cacaca; stroke:none;" d="M174.333 47.6667C174.278 47.7222 174.222 48.7778 174.667 48.3333C174.722 48.2778 174.778 47.2222 174.333 47.6667z"/>
<path style="fill:#a8a8a8; stroke:none;" d="M73 52L73 220C75.2668 216.021 74.0219 211.44 74.0008 207C73.9579 198 74 189 74 180L74 89L74.0008 64C74.0189 59.9053 74.9835 55.6862 73 52z"/>
<path style="fill:#adadad; stroke:none;" d="M77 52C78.1393 53.0154 78.6116 53.3087 80 54C79.0198 52.2167 79.0924 52.4057 77 52z"/>
<path style="fill:#2a2a2a; stroke:none;" d="M175.333 52.6667C175.278 52.7222 175.222 53.7778 175.667 53.3333C175.722 53.2777 175.778 52.2223 175.333 52.6667z"/>
<path style="fill:#272727; stroke:none;" d="M80 53C82.7932 54.7065 85.8018 55.338 89 56C86.2356 54.0298 83.3501 53.4533 80 53z"/>
<path style="fill:#787878; stroke:none;" d="M83 53L84 54L83 53z"/>
<path style="fill:#a5a5a5; stroke:none;" d="M84 53L85 54L84 53z"/>
<path style="fill:#cecece; stroke:none;" d="M81 54L82 55L81 54z"/>
<path style="fill:#888888; stroke:none;" d="M82 54L83 55L82 54z"/>
<path style="fill:#919191; stroke:none;" d="M87 54L88 55L87 54z"/>
<path style="fill:#494949; stroke:none;" d="M175.333 54.6667C175.278 54.7222 175.222 55.7778 175.667 55.3333C175.722 55.2778 175.778 54.2222 175.333 54.6667z"/>
<path style="fill:#d0d0d0; stroke:none;" d="M84 55L85 56L84 55z"/>
<path style="fill:#7f7f7f; stroke:none;" d="M77 56C80.6472 57.5304 87.2421 58.1561 90 55L77 56z"/>
<path style="fill:#b0b0b0; stroke:none;" d="M90 55L91 56L90 55z"/>
<path style="fill:#d2d2d2; stroke:none;" d="M250 55L250 63C251.161 60.2302 251.161 57.7699 250 55z"/>
<path style="fill:#535353; stroke:none;" d="M74 56L74 215C80.296 204.98 77 187.443 77 176L77 94C77 82.4332 79.6042 66.5381 74 56z"/>
<path style="fill:#595959; stroke:none;" d="M90 56C91.2484 56.6848 91.5484 56.7488 93 57C91.7517 56.3152 91.4515 56.2512 90 56z"/>
<path style="fill:#646464; stroke:none;" d="M175.333 56.6667C175.278 56.7222 175.222 57.7778 175.667 57.3333C175.722 57.2777 175.778 56.2223 175.333 56.6667z"/>
<path style="fill:#999999; stroke:none;" d="M75 57L75 60C75.6961 58.4463 75.6961 58.5537 75 57z"/>
<path style="fill:#404040; stroke:none;" d="M77 57L77 68C78.4309 64.59 78.4309 60.41 77 57z"/>
<path style="fill:#000000; stroke:none;" d="M78 57L78 219L205 219L205 116C184.662 116.056 164.387 119.098 144 118.999C133.216 118.947 122.836 116 112 116L112 132C127.241 130.074 143.62 129.366 159 130.039C169.415 130.495 179.492 132 190 132C190 143.086 192 153.967 192 165C192 178.008 190 190.917 190 204C167.639 204 145.424 206.036 123 206C112.624 205.983 102.457 204 92 204L92 57L78 57z"/>
<path style="fill:#bebebe; stroke:none;" d="M92 57L92 199C93.552 195.301 93 190.983 93 187L93 167L93 93L93 70C93 65.7397 93.6611 60.9586 92 57z"/>
<path style="fill:#b0b0b0; stroke:none;" d="M76.3333 61.6667C76.2778 61.7222 76.2222 62.7778 76.6667 62.3333C76.7223 62.2777 76.7777 61.2223 76.3333 61.6667z"/>
<path style="fill:#777777; stroke:none;" d="M76 63L76 66C76.6961 64.4463 76.6961 64.5537 76 63z"/>
<path style="fill:#e5e5e5; stroke:none;" d="M250 63L250 69C250.951 66.7147 250.951 65.2853 250 63z"/>
<path style="fill:#2c2c2c; stroke:none;" d="M176 65L176 73C177.161 70.2302 177.161 67.7699 176 65z"/>
<path style="fill:#e7e7e7; stroke:none;" d="M195 67L195 73C195.951 70.7147 195.951 69.2853 195 67z"/>
<path style="fill:#2a2a2a; stroke:none;" d="M77 68L77 116C78.552 112.301 78 107.983 78 104L78 81C78 76.7397 78.6611 71.9586 77 68z"/>
<path style="fill:#545454; stroke:none;" d="M175 79L175 82C175.696 80.4463 175.696 80.5537 175 79z"/>
<path style="fill:#272727; stroke:none;" d="M175 82L175 85C175.696 83.4463 175.696 83.5537 175 82z"/>
<path style="fill:#cfcfcf; stroke:none;" d="M174.333 87.6667C174.278 87.7222 174.222 88.7778 174.667 88.3333C174.722 88.2777 174.778 87.2223 174.333 87.6667z"/>
<path style="fill:#e6e6e6; stroke:none;" d="M192.333 90.6667C192.278 90.7222 192.222 91.7778 192.667 91.3333C192.722 91.2778 192.778 90.2222 192.333 90.6667z"/>
<path style="fill:#c8c8c8; stroke:none;" d="M173.333 91.6667C173.278 91.7222 173.222 92.7778 173.667 92.3333C173.722 92.2777 173.778 91.2223 173.333 91.6667z"/>
<path style="fill:#bebebe; stroke:none;" d="M175 100C179.471 101.876 185.183 101 190 101C185.529 99.1237 179.817 100 175 100z"/>
<path style="fill:#efefef; stroke:none;" d="M178 101C181.363 103.502 184.874 103.912 189 104C185.69 101.642 182.013 101.175 178 101z"/>
<path style="fill:#cbcbcb; stroke:none;" d="M313 105C314.248 105.685 314.548 105.749 316 106C314.752 105.315 314.451 105.251 313 105z"/>
<path style="fill:#b0b0b0; stroke:none;" d="M316 105C317.248 105.685 317.548 105.749 319 106C317.752 105.315 317.452 105.251 316 105z"/>
<path style="fill:#939393; stroke:none;" d="M319 105C324.715 107.398 332.831 106 339 106C333.285 103.602 325.169 105 319 105z"/>
<path style="fill:#bfbfbf; stroke:none;" d="M339 105C340.248 105.685 340.548 105.749 342 106C340.752 105.315 340.452 105.251 339 105z"/>
<path style="fill:#e6e6e6; stroke:none;" d="M342.667 105.333C342.222 105.778 343.278 105.722 343.333 105.667C343.778 105.222 342.722 105.278 342.667 105.333M449 105C450.248 105.685 450.548 105.749 452 106C450.752 105.315 450.452 105.251 449 105z"/>
<path style="fill:#b8b8b8; stroke:none;" d="M452 105C453.769 105.779 455.036 105.912 457 106C455.231 105.221 453.964 105.088 452 105z"/>
<path style="fill:#939393; stroke:none;" d="M457 105C462.715 107.398 470.831 106 477 106C471.285 103.602 463.169 105 457 105z"/>
<path style="fill:#b6b6b6; stroke:none;" d="M477 105C478.248 105.685 478.548 105.749 480 106C478.752 105.315 478.452 105.251 477 105z"/>
<path style="fill:#dbdbdb; stroke:none;" d="M480 105C481.248 105.685 481.548 105.749 483 106C481.752 105.315 481.452 105.251 480 105z"/>
<path style="fill:#e2e2e2; stroke:none;" d="M295 106C296.248 106.685 296.548 106.749 298 107C296.752 106.315 296.452 106.251 295 106z"/>
<path style="fill:#c6c6c6; stroke:none;" d="M298 106C299.248 106.685 299.548 106.749 301 107C299.752 106.315 299.452 106.251 298 106z"/>
<path style="fill:#ababab; stroke:none;" d="M301 106C302.248 106.685 302.548 106.749 304 107C302.752 106.315 302.452 106.251 301 106z"/>
<path style="fill:#6f6f6f; stroke:none;" d="M270 108C278.054 114.001 290.524 112 300 112L368 112C360.045 106.073 345.584 106.001 336 106C313.903 105.999 292.048 108 270 108z"/>
<path style="fill:#9c9c9c; stroke:none;" d="M346 106C347.248 106.685 347.548 106.749 349 107C347.752 106.315 347.452 106.251 346 106z"/>
<path style="fill:#d8d8d8; stroke:none;" d="M349.667 106.333C349.222 106.778 350.278 106.722 350.333 106.667C350.778 106.222 349.722 106.278 349.667 106.333z"/>
<path style="fill:#cfcfcf; stroke:none;" d="M434 106C435.769 106.779 437.036 106.912 439 107C437.231 106.221 435.964 106.088 434 106z"/>
<path style="fill:#a1a1a1; stroke:none;" d="M439 106C440.769 106.779 442.036 106.912 444 107C442.231 106.221 440.964 106.088 439 106z"/>
<path style="fill:#6f6f6f; stroke:none;" d="M412 108C416.814 114.409 429.883 112 437 112L507 112C498.854 106.189 484.686 106.001 475 106C453.909 105.999 433.032 108 412 108z"/>
<path style="fill:#9d9d9d; stroke:none;" d="M485.667 106.333C485.222 106.778 486.278 106.722 486.333 106.667C486.778 106.222 485.722 106.278 485.667 106.333z"/>
<path style="fill:#c4c4c4; stroke:none;" d="M487.667 106.333C487.222 106.778 488.278 106.722 488.333 106.667C488.778 106.222 487.722 106.278 487.667 106.333z"/>
<path style="fill:#d4d4d4; stroke:none;" d="M278 107C279.248 107.685 279.548 107.749 281 108C279.752 107.315 279.452 107.251 278 107z"/>
<path style="fill:#a8a8a8; stroke:none;" d="M281 107C283.89 108.213 286.874 107.998 290 108C287.11 106.787 284.126 107.002 281 107z"/>
<path style="fill:#9a9a9a; stroke:none;" d="M353 107C354.248 107.685 354.548 107.749 356 108C354.752 107.315 354.452 107.251 353 107z"/>
<path style="fill:#b7b7b7; stroke:none;" d="M418 107C420.052 107.874 421.747 107.953 424 108C421.948 107.126 420.253 107.047 418 107z"/>
<path style="fill:#999999; stroke:none;" d="M424 107C425.769 107.779 427.036 107.912 429 108C427.231 107.221 425.964 107.088 424 107z"/>
<path style="fill:#9d9d9d; stroke:none;" d="M492 107C493.248 107.685 493.548 107.749 495 108C493.752 107.315 493.452 107.251 492 107z"/>
<path style="fill:#d0d0d0; stroke:none;" d="M359.667 108.333C359.222 108.778 360.278 108.722 360.333 108.667C360.778 108.222 359.722 108.278 359.667 108.333z"/>
<path style="fill:#cfcfcf; stroke:none;" d="M408 108L409 109L408 108z"/>
<path style="fill:#838383; stroke:none;" d="M409 108C410.139 109.015 410.612 109.309 412 110C411.02 108.217 411.092 108.406 409 108z"/>
<path style="fill:#d2d2d2; stroke:none;" d="M498.667 108.333C498.222 108.778 499.278 108.722 499.333 108.667C499.778 108.222 498.722 108.278 498.667 108.333z"/>
<path style="fill:#efefef; stroke:none;" d="M156 109C161.469 111.295 169.099 110 175 110C169.531 107.705 161.901 109 156 109z"/>
<path style="fill:#c4c4c4; stroke:none;" d="M363 109L364 110L363 109z"/>
<path style="fill:#a7a7a7; stroke:none;" d="M404 109L404 218C408.747 209.151 407 199.659 407 190L407 137C407 127.939 408.875 117.123 404 109z"/>
<path style="fill:#d1d1d1; stroke:none;" d="M410 109L411 110L410 109z"/>
<path style="fill:#9b9b9b; stroke:none;" d="M501 109L502 110L501 109z"/>
<path style="fill:#c8c8c8; stroke:none;" d="M502 109L503 110L502 109z"/>
<path style="fill:#c7c7c7; stroke:none;" d="M509 109L509 285C511.323 281.147 511.723 276.407 512.41 272C514.264 260.102 513.304 246.92 512.17 235C510.983 222.534 512 209.522 512 197C512 182.432 511.094 167.533 512.089 153C512.808 142.506 513.22 132.506 512.169 122C511.699 117.299 511.578 113.103 509 109z"/>
<path style="fill:#d6d6d6; stroke:none;" d="M139 110C143.471 111.876 149.183 111 154 111C149.529 109.124 143.817 110 139 110z"/>
<path style="fill:#c3c3c3; stroke:none;" d="M112 112C119.627 117.464 132.865 117.985 142 118C162.429 118.033 182.604 116 203 116C194.429 110.615 180.889 110.004 171 110C151.284 109.992 131.736 112 112 112z"/>
<path style="fill:#cacaca; stroke:none;" d="M274 110L275 111L274 110z"/>
<path style="fill:#c8c8c8; stroke:none;" d="M366 110L367 111L366 110z"/>
<path style="fill:#c7c7c7; stroke:none;" d="M413 110L414 111L413 110z"/>
<path style="fill:#9a9a9a; stroke:none;" d="M414 110L415 111L414 110z"/>
<path style="fill:#cdcdcd; stroke:none;" d="M505 110L506 111L505 110z"/>
<path style="fill:#e0e0e0; stroke:none;" d="M120 111C124.471 112.876 130.183 112 135 112C130.529 110.124 124.817 111 120 111z"/>
<path style="fill:#aaaaaa; stroke:none;" d="M277.667 111.333C277.222 111.778 278.278 111.722 278.333 111.667C278.778 111.222 277.722 111.278 277.667 111.333z"/>
<path style="fill:#dadada; stroke:none;" d="M367 113L370 113L369 111C367.365 111.545 367.545 111.365 367 113z"/>
<path style="fill:#a7a7a7; stroke:none;" d="M416.667 111.333C416.222 111.778 417.278 111.722 417.333 111.667C417.778 111.222 416.722 111.278 416.667 111.333z"/>
<path style="fill:#bebebe; stroke:none;" d="M507 111L508 112L507 111z"/>
<path style="fill:#dfdfdf; stroke:none;" d="M192 112C193.248 112.685 193.548 112.749 195 113C193.752 112.315 193.452 112.251 192 112z"/>
<path style="fill:#d0d0d0; stroke:none;" d="M268 112C267.919 116.07 267.422 119.947 268 124C269.512 120.396 269.512 115.604 268 112z"/>
<path style="fill:#212121; stroke:none;" d="M269 112C272.697 113.551 277.017 113 281 113C277.302 111.448 272.983 112 269 112z"/>
<path style="fill:#0e0e0e; stroke:none;" d="M281 112C287.436 114.701 297.049 113 304 113L355 113C348.564 110.299 338.951 112 332 112L281 112z"/>
<path style="fill:#1c1c1c; stroke:none;" d="M355 112C358.432 113.44 362.3 113 366 113C362.568 111.56 358.7 112 355 112z"/>
<path style="fill:#474747; stroke:none;" d="M366 112L366 220C369.163 213.704 367 203.025 367 196L367 138C367 130.504 369.366 118.701 366 112z"/>
<path style="fill:#bebebe; stroke:none;" d="M407 112C406.564 114.607 406.437 116.429 407 119C408.059 116.466 408.059 114.534 407 112z"/>
<path style="fill:#404040; stroke:none;" d="M408 112C411.697 113.551 416.017 113 420 113C416.302 111.448 411.983 112 408 112z"/>
<path style="fill:#1c1c1c; stroke:none;" d="M420 112C426.678 114.802 436.784 113 444 113L496 113C489.322 110.198 479.216 112 472 112L420 112z"/>
<path style="fill:#373737; stroke:none;" d="M496 112C499.959 113.661 504.737 113 509 113C505.041 111.339 500.263 112 496 112z"/>
<path style="fill:#a9a9a9; stroke:none;" d="M265 113L266 114L265 113z"/>
<path style="fill:#000000; stroke:none;" d="M269 113L269 219L366 219L366 113L269 113M408 113L408 219L452 219C459.723 219 468.565 220.198 476 218C474.924 213.479 474.924 209.521 476 205C469.988 203.223 463.239 204 457 204L422 204L422 124C446.123 120.951 469.889 124 494 124C494 139.138 496.976 153.918 497 169C497.032 188.681 494.968 208.36 494.104 228C493.83 234.241 495.03 240.687 494.999 247C494.946 257.975 494 268.964 494 280L431 280L431 287L509 287L509 113L408 113z"/>
<path style="fill:#dedede; stroke:none;" d="M116.667 114.333C116.222 114.778 117.278 114.722 117.333 114.667C117.778 114.222 116.722 114.278 116.667 114.333z"/>
<path style="fill:#535353; stroke:none;" d="M265 114C265.709 148.352 265.709 182.648 265 217C269.766 209.196 268 199.693 268 191L268 140C268 131.191 269.378 122.056 265 114z"/>
<path style="fill:#d3d3d3; stroke:none;" d="M367 114L368 115L367 114z"/>
<path style="fill:#949494; stroke:none;" d="M367 115L368 116L367 115z"/>
<path style="fill:#151515; stroke:none;" d="M77 116L77 207C79.4972 201.049 78 192.42 78 186L78 140C78 132.784 79.8021 122.678 77 116z"/>
<path style="fill:#acacac; stroke:none;" d="M107.333 116.667C107.278 116.722 107.222 117.778 107.667 117.333C107.722 117.278 107.778 116.222 107.333 116.667z"/>
<path style="fill:#404040; stroke:none;" d="M111 116L111 132C112.812 127.681 112.812 120.319 111 116z"/>
<path style="fill:#797979; stroke:none;" d="M124 116C125.248 116.685 125.548 116.749 127 117C125.752 116.315 125.452 116.251 124 116z"/>
<path style="fill:#8d8d8d; stroke:none;" d="M183 116C185.613 117.098 188.165 116.993 191 117C188.387 115.902 185.835 116.007 183 116z"/>
<path style="fill:#606060; stroke:none;" d="M191 116C192.248 116.685 192.548 116.749 194 117C192.752 116.315 192.452 116.251 191 116z"/>
<path style="fill:#333333; stroke:none;" d="M194 116C195.248 116.685 195.549 116.749 197 117C195.752 116.315 195.452 116.251 194 116z"/>
<path style="fill:#bbbbbb; stroke:none;" d="M266 116L267 117L266 116z"/>
<path style="fill:#4a4a4a; stroke:none;" d="M129 117C130.248 117.685 130.548 117.749 132 118C130.752 117.315 130.452 117.251 129 117z"/>
<path style="fill:#9e9e9e; stroke:none;" d="M132.667 117.333C132.222 117.778 133.278 117.722 133.333 117.667C133.778 117.222 132.722 117.278 132.667 117.333z"/>
<path style="fill:#9c9c9c; stroke:none;" d="M169 117C170.248 117.685 170.549 117.749 172 118C170.752 117.315 170.452 117.251 169 117z"/>
<path style="fill:#7b7b7b; stroke:none;" d="M172.667 117.333C172.222 117.778 173.278 117.722 173.333 117.667C173.778 117.222 172.722 117.278 172.667 117.333z"/>
<path style="fill:#606060; stroke:none;" d="M174.667 117.333C174.222 117.778 175.278 117.722 175.333 117.667C175.778 117.222 174.722 117.278 174.667 117.333z"/>
<path style="fill:#434343; stroke:none;" d="M176.667 117.333C176.222 117.778 177.278 117.722 177.333 117.667C177.778 117.222 176.722 117.278 176.667 117.333z"/>
<path style="fill:#272727; stroke:none;" d="M178 117C179.248 117.685 179.548 117.749 181 118C179.752 117.315 179.452 117.251 178 117z"/>
<path style="fill:#cfcfcf; stroke:none;" d="M205 117L205 217C209.479 210.98 209.42 201.24 210.285 194C212.453 175.878 212.479 157.097 210 139C209.014 131.798 208.869 123.334 205 117z"/>
<path style="fill:#8e8e8e; stroke:none;" d="M266 117L267 118L266 117z"/>
<path style="fill:#1b1b1b; stroke:none;" d="M367 117L367 215C371.194 207.169 371.481 196.688 372.09 188C373.146 172.922 373.194 158.079 372.089 143C371.477 134.659 371.014 124.495 367 117z"/>
<path style="fill:#c4c4c4; stroke:none;" d="M107 118L107 132C108.977 128.326 109.257 121.496 107 118z"/>
<path style="fill:#2e2e2e; stroke:none;" d="M136 118C137.769 118.779 139.036 118.912 141 119C139.231 118.221 137.964 118.088 136 118z"/>
<path style="fill:#494949; stroke:none;" d="M141 118C142.248 118.685 142.548 118.749 144 119C142.752 118.315 142.452 118.251 141 118z"/>
<path style="fill:#626262; stroke:none;" d="M144 118C146.613 119.098 149.164 118.993 152 119C149.387 117.902 146.836 118.007 144 118z"/>
<path style="fill:#393939; stroke:none;" d="M152 118C154.89 119.213 157.874 118.998 161 119C158.11 117.787 155.126 118.002 152 118z"/>
<path style="fill:#b9b9b9; stroke:none;" d="M368 118L369 119L368 118z"/>
<path style="fill:#818181; stroke:none;" d="M368 119L369 120L368 119z"/>
<path style="fill:#dddddd; stroke:none;" d="M512 119L512 125C512.951 122.715 512.951 121.285 512 119z"/>
<path style="fill:#5e5e5e; stroke:none;" d="M265 120L265 211C267.497 205.049 266 196.42 266 190L266 144C266 136.784 267.802 126.678 265 120z"/>
<path style="fill:#494949; stroke:none;" d="M368 120L369 121L368 120z"/>
<path style="fill:#9f9f9f; stroke:none;" d="M108 121L108 128C109.059 125.466 109.059 123.534 108 121z"/>
<path style="fill:#7d7d7d; stroke:none;" d="M407 121L407 205C409.599 198.806 408 189.686 408 183L408 141C408 134.846 409.395 126.707 407 121z"/>
<path style="fill:#dfdfdf; stroke:none;" d="M109 122L109 126C109.71 124.241 109.71 123.759 109 122z"/>
<path style="fill:#0f0f0f; stroke:none;" d="M314 122C316.613 123.098 319.164 122.993 322 123C319.387 121.902 316.835 122.007 314 122z"/>
<path style="fill:#bcbcbc; stroke:none;" d="M369 122L370 123L369 122z"/>
<path style="fill:#1e1e1e; stroke:none;" d="M454 122C458.217 123.769 463.459 123 468 123C463.784 121.231 458.541 122 454 122z"/>
<path style="fill:#1f1f1f; stroke:none;" d="M289 123C293.724 124.982 299.91 124 305 124C300.276 122.018 294.09 123 289 123z"/>
<path style="fill:#3f3f3f; stroke:none;" d="M285 124C291.54 128.316 300.432 128 308 128L350 128C344.993 124.854 338.747 124.548 333 123.729C317.171 121.474 300.913 124 285 124z"/>
<path style="fill:#8b8b8b; stroke:none;" d="M369 123L370 124L369 123z"/>
<path style="fill:#181818; stroke:none;" d="M425 123C429.724 124.982 435.91 124 441 124C436.276 122.018 430.09 123 425 123z"/>
<path style="fill:#3f3f3f; stroke:none;" d="M425 124C430.064 127.182 436.194 127.528 442 128.282C458.535 130.429 475.391 128 492 128C484.833 123.497 474.267 123.003 466 123C452.277 122.995 438.691 124 425 124z"/>
<path style="fill:#252525; stroke:none;" d="M475 123C476.248 123.685 476.549 123.749 478 124C476.752 123.315 476.452 123.251 475 123z"/>
<path style="fill:#808080; stroke:none;" d="M268.333 124.667C268.278 124.722 268.222 125.778 268.667 125.333C268.722 125.278 268.778 124.222 268.333 124.667z"/>
<path style="fill:#1f1f1f; stroke:none;" d="M338 124C339.248 124.685 339.549 124.749 341 125C339.752 124.315 339.452 124.251 338 124z"/>
<path style="fill:#595959; stroke:none;" d="M369 124L370 125L369 124z"/>
<path style="fill:#404040; stroke:none;" d="M422 124L422 128C422.71 126.24 422.71 125.76 422 124z"/>
<path style="fill:#909090; stroke:none;" d="M424 124L425 125L424 124z"/>
<path style="fill:#a7a7a7; stroke:none;" d="M481 124C482.248 124.685 482.549 124.749 484 125C482.752 124.315 482.452 124.251 481 124z"/>
<path style="fill:#fefefe; stroke:none;" d="M484 124C487.111 125.691 490.501 126.485 494 127C493.054 122.587 487.767 124 484 124z"/>
<path style="fill:#c9c9c9; stroke:none;" d="M426 125L427 126L426 125z"/>
<path style="fill:#909090; stroke:none;" d="M427 125L428 126L427 125M486 125L487 126L486 125z"/>
<path style="fill:#c4c4c4; stroke:none;" d="M487 125L488 126L487 125z"/>
<path style="fill:#bebebe; stroke:none;" d="M429 126L430 127L429 126z"/>
<path style="fill:#858585; stroke:none;" d="M430 126L431 127L430 126z"/>
<path style="fill:#898989; stroke:none;" d="M489 126L490 127L489 126z"/>
<path style="fill:#d0d0d0; stroke:none;" d="M490 126L491 127L490 126z"/>
<path style="fill:#444444; stroke:none;" d="M268 127L268 204C270.395 198.293 269 190.154 269 184L269 145C269 139.381 270.189 132.217 268 127z"/>
<path style="fill:#1f1f1f; stroke:none;" d="M294 127C295.248 127.685 295.548 127.749 297 128C295.752 127.315 295.452 127.251 294 127z"/>
<path style="fill:#acacac; stroke:none;" d="M370 127L371 128L370 127z"/>
<path style="fill:#9b9b9b; stroke:none;" d="M433 127C434.248 127.685 434.548 127.749 436 128C434.752 127.315 434.452 127.251 433 127z"/>
<path style="fill:#989898; stroke:none;" d="M492 127L493 128L492 127z"/>
<path style="fill:#e5e5e5; stroke:none;" d="M493 127L491 128C492.482 128.791 493.796 128.87 493 127z"/>
<path style="fill:#292929; stroke:none;" d="M283 128L283 200C285.085 195.031 284 188.35 284 183L284 147C284 141.113 285.292 133.463 283 128z"/>
<path style="fill:#fefefe; stroke:none;" d="M284 128L284 199L322 198L351 199L351 128L284 128z"/>
<path style="fill:#4e4e4e; stroke:none;" d="M351 128L351 200C353.085 195.031 352 188.35 352 183L352 147C352 141.113 353.292 133.463 351 128z"/>
<path style="fill:#818181; stroke:none;" d="M370 128L371 129L370 128z"/>
<path style="fill:#5d5d5d; stroke:none;" d="M422 128L422 200C424.085 195.031 423 188.35 423 183L423 147C423 141.113 424.292 133.463 422 128z"/>
<path style="fill:#9e9e9e; stroke:none;" d="M438 128C439.248 128.685 439.549 128.749 441 129C439.752 128.315 439.452 128.251 438 128z"/>
<path style="fill:#6f6f6f; stroke:none;" d="M441 128C442.248 128.685 442.548 128.749 444 129C442.752 128.315 442.452 128.251 441 128z"/>
<path style="fill:#5f5f5f; stroke:none;" d="M471 128C473.332 128.985 475.457 128.981 478 129C475.668 128.015 473.543 128.019 471 128z"/>
<path style="fill:#8d8d8d; stroke:none;" d="M478 128C479.248 128.685 479.548 128.749 481 129C479.752 128.315 479.452 128.251 478 128z"/>
<path style="fill:#b6b6b6; stroke:none;" d="M481 128C482.769 128.779 484.036 128.912 486 129C484.231 128.221 482.964 128.088 481 128z"/>
<path style="fill:#c7c7c7; stroke:none;" d="M486 128C487.769 128.779 489.036 128.912 491 129C489.231 128.221 487.964 128.088 486 128z"/>
<path style="fill:#565656; stroke:none;" d="M370 129L371 130L370 129z"/>
<path style="fill:#c3c3c3; stroke:none;" d="M447 129C449.613 130.098 452.165 129.993 455 130C452.387 128.902 449.836 129.007 447 129z"/>
<path style="fill:#a4a4a4; stroke:none;" d="M455 129C456.769 129.779 458.036 129.912 460 130C458.231 129.221 456.964 129.088 455 129z"/>
<path style="fill:#d1d1d1; stroke:none;" d="M460 129C461.769 129.779 463.036 129.912 465 130C463.231 129.221 461.964 129.088 460 129z"/>
<path style="fill:#aaaaaa; stroke:none;" d="M490 129L490 275C492.022 271.451 491.105 267.952 491.015 264C490.855 257.007 491 249.995 491 243L491 163C491 155.335 490.916 147.665 491.004 140C491.049 136.113 492.11 132.39 490 129z"/>
<path style="fill:#fefefe; stroke:none;" d="M491 129L493 138C494.213 135.11 493.998 132.126 494 129L491 129z"/>
<path style="fill:#181818; stroke:none;" d="M137 130C138.248 130.685 138.548 130.749 140 131C138.752 130.315 138.452 130.251 137 130z"/>
<path style="fill:#454545; stroke:none;" d="M140 130C142.052 130.874 143.747 130.953 146 131C143.948 130.126 142.253 130.047 140 130z"/>
<path style="fill:#767676; stroke:none;" d="M146 130C149.697 131.552 154.017 131 158 131C154.303 129.448 149.983 130 146 130z"/>
<path style="fill:#545454; stroke:none;" d="M158 130C159.248 130.685 159.548 130.749 161 131C159.752 130.315 159.452 130.251 158 130z"/>
<path style="fill:#2c2c2c; stroke:none;" d="M161 130C162.248 130.685 162.548 130.749 164 131C162.752 130.315 162.452 130.251 161 130z"/>
<path style="fill:#b3b3b3; stroke:none;" d="M423 130L423 197C426.215 190.997 426.504 183.651 427.169 177C428.622 162.463 429.521 143.543 423 130z"/>
<path style="fill:#2d2d2d; stroke:none;" d="M115 131C117.332 131.985 119.457 131.981 122 132C119.668 131.015 117.543 131.019 115 131z"/>
<path style="fill:#5a5a5a; stroke:none;" d="M122 131C123.248 131.685 123.548 131.749 125 132C123.752 131.315 123.452 131.251 122 131z"/>
<path style="fill:#939393; stroke:none;" d="M125 131C127.332 131.985 129.457 131.981 132 132C129.668 131.015 127.543 131.019 125 131z"/>
<path style="fill:#cdcdcd; stroke:none;" d="M132 131C133.248 131.685 133.549 131.749 135 132C133.752 131.315 133.452 131.251 132 131z"/>
<path style="fill:#ebebeb; stroke:none;" d="M112 132C119.172 137.116 129.547 137 138 137C153.724 137 169.304 136 185 136C177.667 131.521 166.412 131.003 158 131C142.612 130.994 127.385 132 112 132z"/>
<path style="fill:#7c7c7c; stroke:none;" d="M167.667 131.333C167.222 131.778 168.278 131.722 168.333 131.667C168.778 131.222 167.722 131.278 167.667 131.333z"/>
<path style="fill:#2d2d2d; stroke:none;" d="M169.667 131.333C169.222 131.778 170.278 131.722 170.333 131.667C170.778 131.222 169.722 131.278 169.667 131.333z"/>
<path style="fill:#3b3b3b; stroke:none;" d="M352 131L352 195C359.194 183.069 356.342 165.156 356.015 152C355.847 145.246 355.554 136.924 352 131z"/>
<path style="fill:#ababab; stroke:none;" d="M186.333 132.667C186.278 132.722 186.222 133.778 186.667 133.333C186.722 133.278 186.778 132.222 186.333 132.667z"/>
<path style="fill:#fefefe; stroke:none;" d="M187 132L189 143C190.44 139.568 190 135.7 190 132L187 132z"/>
<path style="fill:#979797; stroke:none;" d="M371.333 132.667C371.278 132.722 371.222 133.778 371.667 133.333C371.722 133.278 371.778 132.222 371.333 132.667z"/>
<path style="fill:#cbcbcb; stroke:none;" d="M424.333 133.667C424.278 133.722 424.222 134.778 424.667 134.333C424.722 134.278 424.778 133.222 424.333 133.667z"/>
<path style="fill:#8f8f8f; stroke:none;" d="M491 133L491 270C496.41 260.971 494 246.151 494 236C494 212.244 496 188.753 496 165C496 155.604 496.538 140.969 491 133z"/>
<path style="fill:#8b8b8b; stroke:none;" d="M186.333 134.667C186.278 134.722 186.222 135.778 186.667 135.333C186.722 135.278 186.778 134.222 186.333 134.667z"/>
<path style="fill:#505050; stroke:none;" d="M371.333 134.667C371.278 134.722 371.222 135.778 371.667 135.333C371.722 135.278 371.778 134.222 371.333 134.667z"/>
<path style="fill:#a5a5a5; stroke:none;" d="M187 135C185.054 141.584 186 149.166 186 156L186 195C188.189 189.784 187 182.619 187 177L187 148C187 143.83 187.957 138.986 187 135z"/>
<path style="fill:#8b8b8b; stroke:none;" d="M187 137C187 157.152 188.527 178.008 186 198C188.675 193.621 189.303 188.033 190 183C191.874 169.477 193.673 149.459 187 137z"/>
<path style="fill:#cccccc; stroke:none;" d="M425.333 137.667C425.278 137.722 425.222 138.778 425.667 138.333C425.722 138.278 425.778 137.222 425.333 137.667z"/>
<path style="fill:#e7e7e7; stroke:none;" d="M210 138L210 143C210.83 140.969 210.83 140.03 210 138z"/>
<path style="fill:#212121; stroke:none;" d="M354.333 138.667C354.278 138.722 354.222 139.778 354.667 139.333C354.722 139.278 354.778 138.222 354.333 138.667z"/>
<path style="fill:#ababab; stroke:none;" d="M493.333 138.667C493.278 138.722 493.222 139.778 493.667 139.333C493.722 139.278 493.778 138.222 493.333 138.667z"/>
<path style="fill:#afafaf; stroke:none;" d="M188.333 139.667C188.278 139.722 188.222 140.778 188.667 140.333C188.722 140.278 188.778 139.222 188.333 139.667z"/>
<path style="fill:#c2c2c2; stroke:none;" d="M372.333 139.667C372.278 139.722 372.222 140.778 372.667 140.333C372.722 140.278 372.778 139.222 372.333 139.667z"/>
<path style="fill:#9c9c9c; stroke:none;" d="M372 141L372 144C372.696 142.446 372.696 142.554 372 141z"/>
<path style="fill:#d8d8d8; stroke:none;" d="M426 141L426 144C426.696 142.446 426.696 142.554 426 141z"/>
<path style="fill:#3a3a3a; stroke:none;" d="M494 142L494 145C494.696 143.446 494.696 143.554 494 142z"/>
<path style="fill:#bbbbbb; stroke:none;" d="M189.333 143.667C189.278 143.722 189.222 144.778 189.667 144.333C189.722 144.278 189.778 143.222 189.333 143.667z"/>
<path style="fill:#686868; stroke:none;" d="M372 144L372 147C372.696 145.446 372.696 145.554 372 144z"/>
<path style="fill:#2b2b2b; stroke:none;" d="M190.333 147.667C190.278 147.722 190.222 148.778 190.667 148.333C190.722 148.278 190.778 147.222 190.333 147.667z"/>
<path style="fill:#373737; stroke:none;" d="M495 148L495 151C495.696 149.446 495.696 149.554 495 148z"/>
<path style="fill:#4a4a4a; stroke:none;" d="M190 149L190 152C190.696 150.446 190.696 150.554 190 149z"/>
<path style="fill:#dfdfdf; stroke:none;" d="M211 149L211 160C212.431 156.59 212.431 152.41 211 149z"/>
<path style="fill:#cccccc; stroke:none;" d="M427 149L427 153C427.71 151.24 427.71 150.76 427 149z"/>
<path style="fill:#d4d4d4; stroke:none;" d="M512 149L512 238C514.497 232.049 513 223.42 513 217L513 172C513 165.049 514.701 155.436 512 149z"/>
<path style="fill:#1d1d1d; stroke:none;" d="M356 150L356 158C357.161 155.23 357.161 152.77 356 150z"/>
<path style="fill:#cecece; stroke:none;" d="M373 151L373 155C373.71 153.24 373.71 152.76 373 151z"/>
<path style="fill:#717171; stroke:none;" d="M495 151L495 154C495.696 152.446 495.696 152.554 495 151z"/>
<path style="fill:#a6a6a6; stroke:none;" d="M373 155L373 159C373.71 157.24 373.71 156.76 373 155z"/>
<path style="fill:#262626; stroke:none;" d="M191 156L191 161C191.83 158.969 191.83 158.031 191 156z"/>
<path style="fill:#868686; stroke:none;" d="M373 159L373 172C374.591 168.209 374.591 162.791 373 159z"/>
<path style="fill:#eeeeee; stroke:none;" d="M428 159L428 168C429.256 165.006 429.256 161.994 428 159z"/>
<path style="fill:#474747; stroke:none;" d="M496 160L496 183C498.284 177.557 498.284 165.443 496 160z"/>
<path style="fill:#444444; stroke:none;" d="M191 161L191 171C192.346 167.793 192.346 164.207 191 161z"/>
<path style="fill:#171717; stroke:none;" d="M356 170L356 178C357.161 175.23 357.161 172.77 356 170z"/>
<path style="fill:#232323; stroke:none;" d="M191 171L191 174C191.696 172.446 191.696 172.554 191 171z"/>
<path style="fill:#dddddd; stroke:none;" d="M250 172L250 201C251.328 197.834 251 194.419 251 191C251 185.113 252.292 177.462 250 172z"/>
<path style="fill:#aaaaaa; stroke:none;" d="M373 172L373 175C373.696 173.446 373.696 173.554 373 172z"/>
<path style="fill:#d9d9d9; stroke:none;" d="M427 174L427 181C428.059 178.466 428.059 176.534 427 174z"/>
<path style="fill:#c7c7c7; stroke:none;" d="M373 175L373 178C373.696 176.446 373.696 176.554 373 175z"/>
<path style="fill:#e4e4e4; stroke:none;" d="M211 176L211 183C212.059 180.466 212.059 178.534 211 176z"/>
<path style="fill:#535353; stroke:none;" d="M190 179L190 182C190.696 180.446 190.696 180.554 190 179z"/>
<path style="fill:#252525; stroke:none;" d="M190.333 182.667C190.278 182.722 190.222 183.778 190.667 183.333C190.722 183.278 190.778 182.222 190.333 182.667z"/>
<path style="fill:#1b1b1b; stroke:none;" d="M496 183L496 186C496.696 184.446 496.696 184.554 496 183z"/>
<path style="fill:#5d5d5d; stroke:none;" d="M372 184L372 187C372.696 185.446 372.696 185.554 372 184z"/>
<path style="fill:#dddddd; stroke:none;" d="M426 184L426 187C426.696 185.446 426.696 185.554 426 184z"/>
<path style="fill:#c4c4c4; stroke:none;" d="M189 186L189 189C189.696 187.446 189.696 187.554 189 186z"/>
<path style="fill:#1d1d1d; stroke:none;" d="M354 187L354 190C354.696 188.446 354.696 188.554 354 187z"/>
<path style="fill:#909090; stroke:none;" d="M372 187L372 190C372.696 188.446 372.696 188.554 372 187z"/>
<path style="fill:#e2e2e2; stroke:none;" d="M425.333 189.667C425.278 189.722 425.222 190.778 425.667 190.333C425.722 190.278 425.778 189.222 425.333 189.667z"/>
<path style="fill:#cacaca; stroke:none;" d="M372 190L372 193C372.696 191.446 372.696 191.554 372 190z"/>
<path style="fill:#d5d5d5; stroke:none;" d="M188.333 191.667C188.278 191.722 188.222 192.778 188.667 192.333C188.722 192.278 188.778 191.222 188.333 191.667z"/>
<path style="fill:#4c4c4c; stroke:none;" d="M495 192L495 201C496.256 198.006 496.256 194.994 495 192z"/>
<path style="fill:#e5e5e5; stroke:none;" d="M424.333 193.667C424.278 193.722 424.222 194.778 424.667 194.333C424.722 194.278 424.778 193.222 424.333 193.667z"/>
<path style="fill:#e3e3e3; stroke:none;" d="M187.333 195.667C187.278 195.722 187.222 196.778 187.667 196.333C187.722 196.278 187.778 195.222 187.333 195.667z"/>
<path style="fill:#181818; stroke:none;" d="M352.333 195.667C352.278 195.722 352.222 196.778 352.667 196.333C352.722 196.278 352.778 195.222 352.333 195.667z"/>
<path style="fill:#818181; stroke:none;" d="M371 196L371 199C371.696 197.446 371.696 197.554 371 196z"/>
<path style="fill:#e4e4e4; stroke:none;" d="M126 197C127.248 197.685 127.548 197.749 129 198C127.752 197.315 127.452 197.251 126 197z"/>
<path style="fill:#c7c7c7; stroke:none;" d="M129 197C130.248 197.685 130.548 197.749 132 198C130.752 197.315 130.452 197.251 129 197z"/>
<path style="fill:#979797; stroke:none;" d="M132 197C133.769 197.779 135.036 197.912 137 198C135.231 197.221 133.964 197.088 132 197z"/>
<path style="fill:#797979; stroke:none;" d="M137 197C138.248 197.685 138.548 197.749 140 198C138.752 197.315 138.452 197.251 137 197z"/>
<path style="fill:#575757; stroke:none;" d="M96 200C103.345 204.701 111.646 204.372 120 205.17C129.909 206.117 139.132 205.256 149 205.015C161.165 204.717 174.019 205.224 186 203C178.682 198.402 168.362 198.486 160 197.91C138.55 196.433 117.442 199.941 96 200z"/>
<path style="fill:#797979; stroke:none;" d="M156 197C157.248 197.685 157.548 197.749 159 198C157.752 197.315 157.452 197.251 156 197z"/>
<path style="fill:#a1a1a1; stroke:none;" d="M159 197C160.248 197.685 160.548 197.749 162 198C160.752 197.315 160.452 197.251 159 197z"/>
<path style="fill:#c8c8c8; stroke:none;" d="M162.667 197.333C162.222 197.778 163.278 197.722 163.333 197.667C163.778 197.222 162.722 197.278 162.667 197.333z"/>
<path style="fill:#e3e3e3; stroke:none;" d="M164.667 197.333C164.222 197.778 165.278 197.722 165.333 197.667C165.778 197.222 164.722 197.278 164.667 197.333z"/>
<path style="fill:#e4e4e4; stroke:none;" d="M109 198C110.248 198.685 110.548 198.749 112 199C110.752 198.315 110.452 198.251 109 198z"/>
<path style="fill:#b2b2b2; stroke:none;" d="M112 198C113.769 198.779 115.036 198.912 117 199C115.231 198.221 113.964 198.088 112 198z"/>
<path style="fill:#959595; stroke:none;" d="M117 198C118.248 198.685 118.548 198.749 120 199C118.752 198.315 118.452 198.251 117 198z"/>
<path style="fill:#787878; stroke:none;" d="M120 198C121.248 198.685 121.548 198.749 123 199C121.752 198.315 121.452 198.251 120 198z"/>
<path style="fill:#acacac; stroke:none;" d="M169.667 198.333C169.222 198.778 170.278 198.722 170.333 198.667C170.778 198.222 169.722 198.278 169.667 198.333z"/>
<path style="fill:#e5e5e5; stroke:none;" d="M171.667 198.333C171.222 198.778 172.278 198.722 172.333 198.667C172.778 198.222 171.722 198.278 171.667 198.333z"/>
<path style="fill:#dedede; stroke:none;" d="M186.333 198.667C186.278 198.722 186.222 199.778 186.667 199.333C186.722 199.278 186.778 198.222 186.333 198.667z"/>
<path style="fill:#bebebe; stroke:none;" d="M305 198C307.89 199.213 310.874 198.998 314 199C311.11 197.787 308.126 198.002 305 198z"/>
<path style="fill:#838383; stroke:none;" d="M314 198C316.052 198.874 317.747 198.953 320 199C317.948 198.126 316.253 198.047 314 198z"/>
<path style="fill:#9a9a9a; stroke:none;" d="M320 198C322.613 199.098 325.165 198.993 328 199C325.387 197.902 322.836 198.007 320 198z"/>
<path style="fill:#cfcfcf; stroke:none;" d="M328 198C329.248 198.685 329.548 198.749 331 199C329.752 198.315 329.452 198.251 328 198z"/>
<path style="fill:#9d9d9d; stroke:none;" d="M92 199C93.9276 200.091 94.7704 200.165 97 200C95.231 199.221 93.964 199.088 92 199z"/>
<path style="fill:#888888; stroke:none;" d="M97 199C99.6127 200.098 102.165 199.993 105 200C102.387 198.902 99.8355 199.007 97 199z"/>
<path style="fill:#939393; stroke:none;" d="M174.667 199.333C174.222 199.778 175.278 199.722 175.333 199.667C175.778 199.222 174.722 199.278 174.667 199.333z"/>
<path style="fill:#cccccc; stroke:none;" d="M176.667 199.333C176.222 199.778 177.278 199.722 177.333 199.667C177.778 199.222 176.722 199.278 176.667 199.333z"/>
<path style="fill:#6f6f6f; stroke:none;" d="M284 199C286.613 200.098 289.165 199.993 292 200C289.387 198.902 286.836 199.007 284 199z"/>
<path style="fill:#575757; stroke:none;" d="M286 200C292.579 203.967 301.53 204 309 204C322.053 204 335.01 203.268 348 203C341.294 198.957 332.594 199 325 199C311.925 199 299.016 199.441 286 200z"/>
<path style="fill:#9a9a9a; stroke:none;" d="M337 199C341.217 200.769 346.459 200 351 200C346.783 198.231 341.541 199 337 199z"/>
<path style="fill:#dfdfdf; stroke:none;" d="M423 199C423.545 200.635 423.365 200.455 425 201L425 199L423 199z"/>
<path style="fill:#909090; stroke:none;" d="M438 199C440.623 200.695 442.908 200.211 446 200C443.387 198.902 440.835 199.007 438 199z"/>
<path style="fill:#c7c7c7; stroke:none;" d="M446 199C448.052 199.874 449.747 199.953 452 200C449.948 199.126 448.253 199.047 446 199z"/>
<path style="fill:#bebebe; stroke:none;" d="M92 200L92 203C92.6961 201.446 92.6961 201.554 92 200z"/>
<path style="fill:#fefefe; stroke:none;" d="M93 200C93.7962 203.716 96.6373 203 100 203C97.7638 201.515 95.591 200.713 93 200z"/>
<path style="fill:#999999; stroke:none;" d="M180 200L181 201L180 200z"/>
<path style="fill:#cccccc; stroke:none;" d="M181 200L182 201L181 200z"/>
<path style="fill:#292929; stroke:none;" d="M340.667 200.333C340.222 200.778 341.278 200.722 341.333 200.667C341.778 200.222 340.722 200.278 340.667 200.333z"/>
<path style="fill:#404040; stroke:none;" d="M422 200L422 204C422.71 202.241 422.71 201.759 422 200z"/>
<path style="fill:#fefefe; stroke:none;" d="M423 200C423.796 203.716 426.637 203 430 203C427.773 201.742 425.403 200.904 423 200z"/>
<path style="fill:#616161; stroke:none;" d="M425.667 200.333C425.222 200.778 426.278 200.722 426.333 200.667C426.778 200.222 425.722 200.278 425.667 200.333z"/>
<path style="fill:#a1a1a1; stroke:none;" d="M427 202L430 201C428.222 200.045 427.979 200.234 427 202z"/>
<path style="fill:#232323; stroke:none;" d="M441 200C447.545 203.927 456.628 203 464 203C457.58 199.153 448.257 200 441 200z"/>
<path style="fill:#5a5a5a; stroke:none;" d="M454.667 200.333C454.222 200.778 455.278 200.722 455.333 200.667C455.778 200.222 454.722 200.278 454.667 200.333z"/>
<path style="fill:#909090; stroke:none;" d="M456.667 200.333C456.222 200.778 457.278 200.722 457.333 200.667C457.778 200.222 456.722 200.278 456.667 200.333z"/>
<path style="fill:#c9c9c9; stroke:none;" d="M97 201L98 202L97 201z"/>
<path style="fill:#989898; stroke:none;" d="M98 201L99 202L98 201z"/>
<path style="fill:#8e8e8e; stroke:none;" d="M183 201L184 202L183 201z"/>
<path style="fill:#cccccc; stroke:none;" d="M184 201L185 202L184 201z"/>
<path style="fill:#cfcfcf; stroke:none;" d="M426 201L427 202L426 201z"/>
<path style="fill:#575757; stroke:none;" d="M428 201C429.506 201.683 430.315 201.826 432 202C430.494 201.317 429.685 201.174 428 201z"/>
<path style="fill:#7f7f7f; stroke:none;" d="M432 201C429.196 203.125 426.466 202.989 423 203C426.699 204.552 431.017 204 435 204L455 204C447.75 200.874 439.588 203.766 432 201z"/>
<path style="fill:#b9b9b9; stroke:none;" d="M442 201L443 202L442 201z"/>
<path style="fill:#757575; stroke:none;" d="M443 201L444 202L443 201z"/>
<path style="fill:#767676; stroke:none;" d="M461 201L462 202L461 201z"/>
<path style="fill:#bababa; stroke:none;" d="M462 201L463 202L462 201z"/>
<path style="fill:#bfbfbf; stroke:none;" d="M100 202L101 203L100 202z"/>
<path style="fill:#7f7f7f; stroke:none;" d="M92 203C95.4324 204.44 99.2998 204 103 204C99.761 202.127 95.7218 202.99 92 203z"/>
<path style="fill:#656565; stroke:none;" d="M183 203C185.332 203.985 187.457 203.981 190 204C187.568 202.683 185.752 202.723 183 203z"/>
<path style="fill:#cccccc; stroke:none;" d="M187 202L188 203L187 202z"/>
<path style="fill:#292929; stroke:none;" d="M291 202C292.248 202.685 292.548 202.749 294 203C292.752 202.315 292.452 202.251 291 202z"/>
<path style="fill:#3c3c3c; stroke:none;" d="M341 203C344.432 204.44 348.3 204 352 204C348.554 202.146 344.827 202.932 341 203z"/>
<path style="fill:#666666; stroke:none;" d="M370 202L371 203L370 202z"/>
<path style="fill:#a3a3a3; stroke:none;" d="M430.667 202.333C430.222 202.778 431.278 202.722 431.333 202.667C431.778 202.222 430.722 202.278 430.667 202.333z"/>
<path style="fill:#bfbfbf; stroke:none;" d="M435 202L436 203L435 202z"/>
<path style="fill:#4c4c4c; stroke:none;" d="M448.667 202.333C448.222 202.778 449.278 202.722 449.333 202.667C449.778 202.222 448.722 202.278 448.667 202.333z"/>
<path style="fill:#515151; stroke:none;" d="M455 203C458.697 204.552 463.017 204 467 204C463.468 201.982 459.014 202.989 455 203z"/>
<path style="fill:#acacac; stroke:none;" d="M465 202L466 203L465 202z"/>
<path style="fill:#2f2f2f; stroke:none;" d="M296.667 203.333C296.222 203.778 297.278 203.722 297.333 203.667C297.778 203.222 296.722 203.278 296.667 203.333z"/>
<path style="fill:#919191; stroke:none;" d="M370 203L371 204L370 203z"/>
<path style="fill:#7f7f7f; stroke:none;" d="M467 203C469.89 204.213 472.874 203.998 476 204C473.11 202.787 470.126 203.002 467 203z"/>
<path style="fill:#212121; stroke:none;" d="M108 204C109.248 204.685 109.548 204.749 111 205C109.752 204.315 109.452 204.251 108 204z"/>
<path style="fill:#303030; stroke:none;" d="M165 204C167.89 205.213 170.874 204.998 174 205C171.11 203.787 168.126 204.002 165 204z"/>
<path style="fill:#c7c7c7; stroke:none;" d="M249 204L249 207C249.696 205.446 249.696 205.554 249 204z"/>
<path style="fill:#242424; stroke:none;" d="M301 204C302.769 204.779 304.036 204.912 306 205C304.231 204.221 302.964 204.088 301 204z"/>
<path style="fill:#414141; stroke:none;" d="M306 204C311.469 206.295 319.099 205 325 205C319.531 202.705 311.901 204 306 204z"/>
<path style="fill:#191919; stroke:none;" d="M325 204C328.163 205.327 331.586 205 335 205C331.837 203.673 328.414 204 325 204z"/>
<path style="fill:#bdbdbd; stroke:none;" d="M370 204L371 205L370 204z"/>
<path style="fill:#545454; stroke:none;" d="M475 204L476 205L475 204z"/>
<path style="fill:#292929; stroke:none;" d="M114 205C116.89 206.213 119.874 205.998 123 206C120.11 204.787 117.126 205.002 114 205z"/>
<path style="fill:#393939; stroke:none;" d="M143 205C145.613 206.098 148.165 205.993 151 206C148.387 204.902 145.835 205.007 143 205z"/>
<path style="fill:#171717; stroke:none;" d="M151 205C153.052 205.874 154.747 205.953 157 206C154.948 205.126 153.253 205.047 151 205z"/>
<path style="fill:#c2c2c2; stroke:none;" d="M230 206L230 209C230.696 207.446 230.696 207.554 230 206z"/>
<path style="fill:#a8a8a8; stroke:none;" d="M268.333 206.667C268.278 206.722 268.222 207.778 268.667 207.333C268.722 207.278 268.778 206.222 268.333 206.667z"/>
<path style="fill:#4c4c4c; stroke:none;" d="M475 206L475 217C476.431 213.59 476.431 209.41 475 206z"/>
<path style="fill:#bcbcbc; stroke:none;" d="M476 206L477 207L476 206z"/>
<path style="fill:#404040; stroke:none;" d="M77 207L77 219C78.5124 215.396 78.5124 210.604 77 207z"/>
<path style="fill:#6b6b6b; stroke:none;" d="M369 207L370 208L369 207z"/>
<path style="fill:#818181; stroke:none;" d="M476 207L477 208L476 207z"/>
<path style="fill:#787878; stroke:none;" d="M494 207L494 213C494.951 210.715 494.951 209.285 494 207z"/>
<path style="fill:#d0d0d0; stroke:none;" d="M268 208C267.363 212.003 267.967 215.955 268 220C269.512 216.396 269.512 211.604 268 208z"/>
<path style="fill:#9c9c9c; stroke:none;" d="M369 208L370 209L369 208z"/>
<path style="fill:#171717; stroke:none;" d="M476 208L476 215C477.059 212.466 477.059 210.534 476 208z"/>
<path style="fill:#9c9c9c; stroke:none;" d="M76 209L77 210L76 209z"/>
<path style="fill:#d0d0d0; stroke:none;" d="M369 209L370 210L369 209z"/>
<path style="fill:#bebebe; stroke:none;" d="M407 209C406.6 212.642 406.99 216.321 407 220C408.431 216.59 408.431 212.41 407 209z"/>
<path style="fill:#cfcfcf; stroke:none;" d="M76 210L77 211L76 210z"/>
<path style="fill:#b7b7b7; stroke:none;" d="M477 210L477 213C477.696 211.446 477.696 211.554 477 210z"/>
<path style="fill:#dadada; stroke:none;" d="M248 211L248 214C248.696 212.446 248.696 212.554 248 211z"/>
<path style="fill:#5f5f5f; stroke:none;" d="M368 211L369 212L368 211z"/>
<path style="fill:#8e8e8e; stroke:none;" d="M75 212L76 213L75 212z"/>
<path style="fill:#d2d2d2; stroke:none;" d="M229.333 212.667C229.278 212.722 229.222 213.778 229.667 213.333C229.722 213.278 229.778 212.222 229.333 212.667z"/>
<path style="fill:#969696; stroke:none;" d="M368 212L369 213L368 212z"/>
<path style="fill:#c3c3c3; stroke:none;" d="M75 213L76 214L75 213z"/>
<path style="fill:#cfcfcf; stroke:none;" d="M368 213L369 214L368 213z"/>
<path style="fill:#575757; stroke:none;" d="M494 213L494 220C495.059 217.466 495.059 215.534 494 213z"/>
<path style="fill:#a0a0a0; stroke:none;" d="M266 214L267 215L266 214z"/>
<path style="fill:#e3e3e3; stroke:none;" d="M405.333 214.667C405.278 214.722 405.222 215.778 405.667 215.333C405.722 215.278 405.778 214.222 405.333 214.667z"/>
<path style="fill:#cdcdcd; stroke:none;" d="M266 215L267 216L266 215z"/>
<path style="fill:#7d7d7d; stroke:none;" d="M476 215L477 216L476 215z"/>
<path style="fill:#acacac; stroke:none;" d="M367 216L368 217L367 216z"/>
<path style="fill:#b9b9b9; stroke:none;" d="M476 216L477 217L476 216z"/>
<path style="fill:#878787; stroke:none;" d="M265 217L266 218L265 217z"/>
<path style="fill:#bbbbbb; stroke:none;" d="M265 218L266 219L265 218z"/>
<path style="fill:#505050; stroke:none;" d="M475 218L476 219L475 218z"/>
<path style="fill:#7f7f7f; stroke:none;" d="M77 219C80.9586 220.661 85.7396 220 90 220L116 220L205 220C201.041 218.339 196.26 219 192 219L166 219L77 219z"/>
<path style="fill:#818181; stroke:none;" d="M231 219C235.471 220.876 241.183 220 246 220C241.529 218.124 235.817 219 231 219z"/>
<path style="fill:#828282; stroke:none;" d="M269 219C277.118 222.407 290.203 220 299 220L366 220C357.882 216.593 344.797 219 336 219L269 219z"/>
<path style="fill:#7f7f7f; stroke:none;" d="M408 219C413.951 221.497 422.58 220 429 220L476 220C470.049 217.503 461.42 219 455 219L408 219z"/>
<path style="fill:#2f2f2f; stroke:none;" d="M494 220L494 225C494.83 222.97 494.83 222.03 494 220z"/>
<path style="fill:#131313; stroke:none;" d="M494 233L494 241C495.161 238.23 495.161 235.77 494 233z"/>
<path style="fill:#242424; stroke:none;" d="M494 241L494 255C495.667 251.028 495.667 244.972 494 241z"/>
<path style="fill:#f0f0f0; stroke:none;" d="M513 246L513 264C514.952 259.349 514.952 250.651 513 246z"/>
<path style="fill:#b1b1b1; stroke:none;" d="M493.333 260.667C493.278 260.722 493.222 261.778 493.667 261.333C493.722 261.278 493.778 260.222 493.333 260.667z"/>
<path style="fill:#cfcfcf; stroke:none;" d="M493 262L493 265C493.696 263.446 493.696 263.554 493 262z"/>
<path style="fill:#d6d6d6; stroke:none;" d="M492.333 267.667C492.278 267.722 492.222 268.778 492.667 268.333C492.722 268.278 492.778 267.222 492.333 267.667z"/>
<path style="fill:#e6e6e6; stroke:none;" d="M452 274C453.769 274.779 455.036 274.912 457 275C455.231 274.221 453.964 274.088 452 274z"/>
<path style="fill:#cccccc; stroke:none;" d="M457 274C459.613 275.098 462.165 274.993 465 275C462.387 273.902 459.836 274.007 457 274z"/>
<path style="fill:#aaaaaa; stroke:none;" d="M442 275L443 276L442 275z"/>
<path style="fill:#4f4f4f; stroke:none;" d="M443 275C444.918 276.144 445.732 276.174 448 276C446.231 275.221 444.964 275.088 443 275z"/>
<path style="fill:#3d3d3d; stroke:none;" d="M446 276C448.889 277.731 451.661 277.929 455 278C447.279 280.282 438.025 279 430 279L430 287C430.985 284.668 430.981 282.543 431 280L494 280C490.841 278.674 487.351 279.05 484 278.251C472.017 275.394 458.213 273.092 446 276z"/>
<path style="fill:#5a5a5a; stroke:none;" d="M468.667 275.333C468.222 275.778 469.278 275.722 469.333 275.667C469.778 275.222 468.722 275.278 468.667 275.333z"/>
<path style="fill:#777777; stroke:none;" d="M470 275C471.248 275.685 471.548 275.749 473 276C471.752 275.315 471.452 275.251 470 275z"/>
<path style="fill:#b7b7b7; stroke:none;" d="M473.667 275.333C473.222 275.778 474.278 275.722 474.333 275.667C474.778 275.222 473.722 275.278 473.667 275.333z"/>
<path style="fill:#b8b8b8; stroke:none;" d="M436 278L439 277C437.222 276.045 436.979 276.234 436 278z"/>
<path style="fill:#a5a5a5; stroke:none;" d="M444 276L445 277L444 276z"/>
<path style="fill:#7a7a7a; stroke:none;" d="M477 276L478 277L477 276z"/>
<path style="fill:#aaaaaa; stroke:none;" d="M478 276L479 277L478 276z"/>
<path style="fill:#8a8a8a; stroke:none;" d="M489 276C490.139 277.015 490.612 277.309 492 278C490.777 276.805 490.58 276.684 489 276z"/>
<path style="fill:#bebebe; stroke:none;" d="M491 276L492 277L491 276z"/>
<path style="fill:#888888; stroke:none;" d="M437.667 277.333C437.222 277.778 438.278 277.722 438.333 277.667C438.778 277.222 437.722 277.278 437.667 277.333z"/>
<path style="fill:#a9a9a9; stroke:none;" d="M447 277L448 278L447 277z"/>
<path style="fill:#787878; stroke:none;" d="M448 277L449 278L448 277z"/>
<path style="fill:#868686; stroke:none;" d="M481 277L482 278L481 277z"/>
<path style="fill:#c2c2c2; stroke:none;" d="M482 277L483 278L482 277z"/>
<path style="fill:#555555; stroke:none;" d="M489.667 277.333C489.222 277.778 490.278 277.722 490.333 277.667C490.778 277.222 489.722 277.278 489.667 277.333z"/>
<path style="fill:#e3e3e3; stroke:none;" d="M511 277L511 280C511.696 278.446 511.696 278.554 511 277z"/>
<path style="fill:#9b9b9b; stroke:none;" d="M451.667 278.333C451.222 278.778 452.278 278.722 452.333 278.667C452.778 278.222 451.722 278.278 451.667 278.333z"/>
<path style="fill:#626262; stroke:none;" d="M453.667 278.333C453.222 278.778 454.278 278.722 454.333 278.667C454.778 278.222 453.722 278.278 453.667 278.333z"/>
<path style="fill:#888888; stroke:none;" d="M484 278L485 279L484 278z"/>
<path style="fill:#dcdcdc; stroke:none;" d="M427 281L427 285C427.911 283.623 428.404 282.56 429 281L427 281z"/>
<path style="fill:#9f9f9f; stroke:none;" d="M428 282L428 285C428.696 283.446 428.696 283.554 428 282z"/>
</svg>
