<?xml version="1.0" standalone="yes"?>
<svg xmlns="http://www.w3.org/2000/svg" width="400" height="250">
<path style="fill:#fefefe; stroke:none;" d="M0 0L0 250L400 250L400 0L0 0z"/>
<path style="fill:#b9b9b9; stroke:none;" d="M89 58C90.7691 58.7789 92.0359 58.9124 94 59C92.231 58.2211 90.9641 58.0876 89 58z"/>
<path style="fill:#9b9b9b; stroke:none;" d="M94 58C95.2484 58.6848 95.5484 58.7488 97 59C95.7517 58.3152 95.4516 58.2512 94 58z"/>
<path style="fill:#7e7e7e; stroke:none;" d="M97 58C98.2484 58.6848 98.5484 58.7488 100 59C98.7517 58.3152 98.4515 58.2512 97 58z"/>
<path style="fill:#4d4d4d; stroke:none;" d="M100 58C101.769 58.7789 103.036 58.9124 105 59C103.231 58.2211 101.964 58.0876 100 58z"/>
<path style="fill:#333333; stroke:none;" d="M76 60C80.4867 62.4142 86.9723 61 92 61C104.746 61 119.551 63.1064 132 61C127.562 58.6406 122.858 59.2929 118 58.8302C103.986 57.4957 90.0597 59.9985 76 60z"/>
<path style="fill:#585858; stroke:none;" d="M115 58C116.248 58.6848 116.548 58.7488 118 59C116.752 58.3152 116.452 58.2512 115 58z"/>
<path style="fill:#767676; stroke:none;" d="M118 58C119.248 58.6848 119.548 58.7488 121 59C119.752 58.3152 119.452 58.2512 118 58z"/>
<path style="fill:#a2a2a2; stroke:none;" d="M121 58C122.248 58.6848 122.548 58.7488 124 59C122.752 58.3152 122.452 58.2512 121 58z"/>
<path style="fill:#d7d7d7; stroke:none;" d="M124.667 58.3333C124.222 58.7778 125.278 58.7222 125.333 58.6667C125.778 58.2222 124.722 58.2778 124.667 58.3333z"/>
<path style="fill:#ebebeb; stroke:none;" d="M69 59L69 70C70.4237 66.6146 70.8465 62.1936 69 59z"/>
<path style="fill:#bebebe; stroke:none;" d="M72 62L77 62L75 59C73.0775 59.9015 73.0012 60.0761 72 62z"/>
<path style="fill:#999999; stroke:none;" d="M75 59C77.3316 59.9845 79.4567 59.9813 82 60C79.6685 59.0155 77.5433 59.0187 75 59z"/>
<path style="fill:#7d7d7d; stroke:none;" d="M82 59C83.2484 59.6848 83.5484 59.7488 85 60C83.7517 59.3152 83.4515 59.2512 82 59z"/>
<path style="fill:#575757; stroke:none;" d="M85.6667 59.3333C85.2222 59.7778 86.2778 59.7222 86.3333 59.6667C86.7777 59.2223 85.7222 59.2778 85.6667 59.3333z"/>
<path style="fill:#acacac; stroke:none;" d="M128 59C129.248 59.6848 129.548 59.7488 131 60C129.752 59.3152 129.452 59.2512 128 59z"/>
<path style="fill:#5f5f5f; stroke:none;" d="M75 60L76 61L75 60z"/>
<path style="fill:#4c4c4c; stroke:none;" d="M131 61C132.769 61.7789 134.036 61.9124 136 62C134.072 60.9091 133.23 60.8346 131 61z"/>
<path style="fill:#aaaaaa; stroke:none;" d="M133 60L134 61L133 60z"/>
<path style="fill:#b6b6b6; stroke:none;" d="M161 61C163.052 61.8743 164.747 61.9528 167 62L167 60L161 61z"/>
<path style="fill:#a3a3a3; stroke:none;" d="M70 61L71 62L70 61z"/>
<path style="fill:#5f5f5f; stroke:none;" d="M77.6667 61.3333C77.2222 61.7778 78.2778 61.7222 78.3333 61.6667C78.7777 61.2222 77.7222 61.2778 77.6667 61.3333z"/>
<path style="fill:#262626; stroke:none;" d="M80 61C84.7199 62.9806 90.9198 62 96 62L129 62C124.28 60.0194 118.08 61 113 61L80 61z"/>
<path style="fill:#b8b8b8; stroke:none;" d="M136.667 61.3333C136.222 61.7778 137.278 61.7222 137.333 61.6667C137.778 61.2222 136.722 61.2777 136.667 61.3333z"/>
<path style="fill:#8a8a8a; stroke:none;" d="M167 61C168.248 61.6848 168.548 61.7488 170 62C168.752 61.3152 168.452 61.2512 167 61z"/>
<path style="fill:#535353; stroke:none;" d="M70 62L70 67C70.8299 64.9695 70.8299 64.0305 70 62z"/>
<path style="fill:#000000; stroke:none;" d="M72 62L72 67L129 67L129 102L137 102L137 62L72 62z"/>
<path style="fill:#8b8b8b; stroke:none;" d="M137 62L137 102C140.206 94.3606 138 82.2707 138 74C138 70.0172 138.552 65.6986 137 62z"/>
<path style="fill:#cbcbcb; stroke:none;" d="M138 62L138 98C142.798 88.9749 142.818 70.9969 138 62z"/>
<path style="fill:#494949; stroke:none;" d="M161 62L161 162C163.701 155.564 162 145.951 162 139L162 88C162 80.2563 164.004 69.1593 161 62z"/>
<path style="fill:#000000; stroke:none;" d="M162 62L162 162L170 162L170 62L162 62z"/>
<path style="fill:#c5c5c5; stroke:none;" d="M170.333 62.6667C170.278 62.7222 170.222 63.7778 170.667 63.3333C170.722 63.2777 170.778 62.2223 170.333 62.6667z"/>
<path style="fill:#b3b3b3; stroke:none;" d="M159 63L159 161C162.171 155.435 160 145.388 160 139L160 86C160 79.6381 162.33 68.3512 159 63z"/>
<path style="fill:#e4e4e4; stroke:none;" d="M71.3333 64.6667C71.2778 64.7222 71.2222 65.7778 71.6667 65.3333C71.7223 65.2777 71.7777 64.2223 71.3333 64.6667z"/>
<path style="fill:#afafaf; stroke:none;" d="M170 64L170 161C173.499 154.419 172 145.255 172 138L172 88C172 80.6933 173.864 70.451 170 64z"/>
<path style="fill:#d0d0d0; stroke:none;" d="M171.333 65.6667C171.278 65.7222 171.222 66.7778 171.667 66.3333C171.722 66.2777 171.778 65.2223 171.333 65.6667z"/>
<path style="fill:#131313; stroke:none;" d="M96 66C100.974 68.0872 107.638 67 113 67C108.026 64.9128 101.362 66 96 66z"/>
<path style="fill:#8a8a8a; stroke:none;" d="M70 67L71 68L70 67z"/>
<path style="fill:#272727; stroke:none;" d="M72 67C80.7918 71.7086 91.4852 70.7411 101 70.0895C107.948 69.6137 115.037 70 122 70C118.881 65.9027 112.696 67 108 67L72 67z"/>
<path style="fill:#3f3f3f; stroke:none;" d="M119 67C121.258 68.8103 123.133 69.6113 126 70C125.35 68.7003 125.853 69 124 69C125.801 68.4382 127.122 68.1759 129 68C125.837 66.6726 122.414 67.0004 119 67z"/>
<path style="fill:#a7a7a7; stroke:none;" d="M160 67L160 156C162.497 150.049 161 141.42 161 135L161 90C161 83.049 162.701 73.4361 160 67z"/>
<path style="fill:#bebebe; stroke:none;" d="M70 68L71 69L70 68z"/>
<path style="fill:#9e9e9e; stroke:none;" d="M74 68L75 69L74 68z"/>
<path style="fill:#616161; stroke:none;" d="M75 68L76 69L75 68z"/>
<path style="fill:#a2a2a2; stroke:none;" d="M124 68L125 69L124 68z"/>
<path style="fill:#fefefe; stroke:none;" d="M125 68C126.248 68.6848 126.548 68.7488 128 69C126.752 68.3152 126.452 68.2512 125 68z"/>
<path style="fill:#a9a9a9; stroke:none;" d="M128 68C127.568 70.5334 127.568 72.4666 128 75C129.059 72.4657 129.059 70.5343 128 68z"/>
<path style="fill:#c4c4c4; stroke:none;" d="M77 69L78 70L77 69z"/>
<path style="fill:#929292; stroke:none;" d="M78 69L79 70L78 69z"/>
<path style="fill:#646464; stroke:none;" d="M79 69L80 70L79 69z"/>
<path style="fill:#757575; stroke:none;" d="M126 69L127 70L126 69z"/>
<path style="fill:#d2d2d2; stroke:none;" d="M172 69L172 81C173.512 77.3957 173.512 72.6043 172 69z"/>
<path style="fill:#8d8d8d; stroke:none;" d="M82.6667 70.3333C82.2222 70.7778 83.2778 70.7222 83.3333 70.6667C83.7778 70.2222 82.7222 70.2778 82.6667 70.3333z"/>
<path style="fill:#676767; stroke:none;" d="M84 70C85.2484 70.6848 85.5484 70.7488 87 71C85.7517 70.3152 85.4515 70.2512 84 70z"/>
<path style="fill:#454545; stroke:none;" d="M97 70C99.6127 71.0977 102.165 70.9928 105 71C102.387 69.9023 99.8355 70.0072 97 70z"/>
<path style="fill:#7d7d7d; stroke:none;" d="M105 70C107.332 70.9845 109.457 70.9813 112 71C109.668 70.0155 107.543 70.0187 105 70z"/>
<path style="fill:#9b9b9b; stroke:none;" d="M112 70C113.248 70.6848 113.548 70.7488 115 71C113.752 70.3152 113.452 70.2512 112 70z"/>
<path style="fill:#c3c3c3; stroke:none;" d="M115 70C116.248 70.6848 116.548 70.7488 118 71C116.752 70.3152 116.451 70.2512 115 70z"/>
<path style="fill:#c7c7c7; stroke:none;" d="M126 70L126 102C127.656 99.0998 127.078 96.2981 127.014 93C126.887 86.4617 129.225 75.6471 126 70z"/>
<path style="fill:#e8e8e8; stroke:none;" d="M127.333 70.6667C127.278 70.7222 127.222 71.7778 127.667 71.3333C127.722 71.2777 127.778 70.2223 127.333 70.6667z"/>
<path style="fill:#8f8f8f; stroke:none;" d="M127 74L127 98C130.603 93.2448 130.603 78.7552 127 74z"/>
<path style="fill:#ebebeb; stroke:none;" d="M69 78L69 140C69 145.527 66.6555 158.204 71 162C67.8843 148.913 70 133.424 70 120C70 106.576 67.8843 91.0868 71 78L69 78z"/>
<path style="fill:#bebebe; stroke:none;" d="M72 79C74.3226 79.9215 75.5805 79.6873 78 79C75.7612 78.2653 74.3209 78.4824 72 79z"/>
<path style="fill:#6c6c6c; stroke:none;" d="M74.6667 78.3333C74.2222 78.7778 75.2778 78.7222 75.3333 78.6667C75.7778 78.2222 74.7222 78.2778 74.6667 78.3333z"/>
<path style="fill:#9d9d9d; stroke:none;" d="M70 79L71 80L70 79z"/>
<path style="fill:#707070; stroke:none;" d="M77 79C78.506 79.683 79.3148 79.8259 81 80C79.4939 79.317 78.6852 79.1741 77 79z"/>
<path style="fill:#535353; stroke:none;" d="M70 80L70 160C73.3657 154.381 72 146.347 72 140L72 100C72 93.5244 73.1254 85.8787 70 80z"/>
<path style="fill:#0e0e0e; stroke:none;" d="M72 80L72 116C74.9032 109.081 73 98.4798 73 91C73 87.2976 73.4412 83.4346 72 80z"/>
<path style="fill:#000000; stroke:none;" d="M73 80L72 162L146 162L146 110C128.606 114.141 109.575 110.048 92 110L92 118L138 118C138 126.118 138.393 133.92 138.039 142C137.899 145.214 138.861 149.852 136.972 152.682C134.569 156.284 127.691 155 124 155C113.56 155 103.424 155.27 93 155.015C89.4513 154.928 83.3496 156.162 81.0278 152.682C77.9619 148.088 80 137.361 80 132L80 80L73 80z"/>
<path style="fill:#393939; stroke:none;" d="M80 80L80 154C82.1889 148.784 81 141.619 81 136L81 100C81 93.846 82.3949 85.7073 80 80z"/>
<path style="fill:#414141; stroke:none;" d="M129 80L129 91C130.431 87.59 130.431 83.41 129 80z"/>
<path style="fill:#ededed; stroke:none;" d="M172 81L172 140C173.769 135.785 173 130.536 173 126L173 97C173 91.9198 173.981 85.7199 172 81z"/>
<path style="fill:#939393; stroke:none;" d="M71.3333 82.6667C71.2778 82.7222 71.2222 83.7778 71.6667 83.3333C71.7223 83.2777 71.7778 82.2223 71.3333 82.6667z"/>
<path style="fill:#a9a9a9; stroke:none;" d="M128 97C127.79 98.8468 127.806 100.143 128 102C128.83 99.9695 128.83 99.0305 128 97z"/>
<path style="fill:#dcdcdc; stroke:none;" d="M205 104C207.332 104.985 209.457 104.981 212 105C209.668 104.015 207.543 104.019 205 104z"/>
<path style="fill:#bababa; stroke:none;" d="M212 104C214.613 105.098 217.165 104.993 220 105C217.387 103.902 214.836 104.007 212 104z"/>
<path style="fill:#d5d5d5; stroke:none;" d="M220 104C221.769 104.779 223.036 104.912 225 105C223.231 104.221 221.964 104.088 220 104z"/>
<path style="fill:#dadada; stroke:none;" d="M286 104C288.332 104.985 290.457 104.981 293 105C290.668 104.015 288.543 104.019 286 104z"/>
<path style="fill:#b9b9b9; stroke:none;" d="M293 104C295.332 104.985 297.457 104.981 300 105C297.668 104.015 295.543 104.019 293 104z"/>
<path style="fill:#d2d2d2; stroke:none;" d="M300 104C301.769 104.779 303.036 104.912 305 105C303.231 104.221 301.964 104.088 300 104z"/>
<path style="fill:#eaeaea; stroke:none;" d="M183 108L187 108C185.752 107.315 185.452 107.251 184 107C186.729 106.19 189.15 106.021 192 106C188.475 104.525 185.144 104.693 183 108z"/>
<path style="fill:#b5b5b5; stroke:none;" d="M192 105C193.769 105.779 195.036 105.912 197 106C195.231 105.221 193.964 105.088 192 105z"/>
<path style="fill:#9c9c9c; stroke:none;" d="M197 105C198.248 105.685 198.548 105.749 200 106C198.752 105.315 198.452 105.251 197 105z"/>
<path style="fill:#6f6f6f; stroke:none;" d="M185 106C189.679 108.35 195.858 107 201 107L237 107C231.642 104.73 224.768 105 219 105C207.61 104.999 196.371 106 185 106z"/>
<path style="fill:#949494; stroke:none;" d="M229 105C230.248 105.685 230.548 105.749 232 106C230.752 105.315 230.452 105.251 229 105z"/>
<path style="fill:#dadada; stroke:none;" d="M232.667 105.333C232.222 105.778 233.278 105.722 233.333 105.667C233.778 105.222 232.722 105.278 232.667 105.333z"/>
<path style="fill:#e3e3e3; stroke:none;" d="M265 105C267.613 106.098 270.164 105.993 273 106C270.387 104.902 267.836 105.007 265 105z"/>
<path style="fill:#b2b2b2; stroke:none;" d="M273 105C274.506 105.683 275.315 105.826 277 106C275.494 105.317 274.685 105.174 273 105z"/>
<path style="fill:#919191; stroke:none;" d="M277 105C279.332 105.985 281.457 105.981 284 106C281.668 105.015 279.543 105.019 277 105z"/>
<path style="fill:#6f6f6f; stroke:none;" d="M266 106C271.39 108.866 278.06 108 284 108L320 108C315.084 105.055 307.65 105.028 302 105.001C289.945 104.943 278.051 106 266 106z"/>
<path style="fill:#8c8c8c; stroke:none;" d="M309 105C310.248 105.685 310.549 105.749 312 106C310.752 105.315 310.452 105.251 309 105z"/>
<path style="fill:#cdcdcd; stroke:none;" d="M312 105C313.248 105.685 313.548 105.749 315 106C313.752 105.315 313.452 105.251 312 105z"/>
<path style="fill:#f0f0f0; stroke:none;" d="M116 106C119.697 107.552 124.017 107 128 107C124.303 105.448 119.983 106 116 106z"/>
<path style="fill:#bcbcbc; stroke:none;" d="M184 106L185 107L184 106z"/>
<path style="fill:#c3c3c3; stroke:none;" d="M237 106L238 107L237 106z"/>
<path style="fill:#d0d0d0; stroke:none;" d="M261 106L261 162C263.334 158.25 262.007 153.323 262 149L262 119C262.007 114.677 263.334 109.75 261 106z"/>
<path style="fill:#a8a8a8; stroke:none;" d="M265 106L266 107L265 106z"/>
<path style="fill:#adadad; stroke:none;" d="M317 106L318 107L317 106z"/>
<path style="fill:#e9e9e9; stroke:none;" d="M96 107C98.0521 107.874 99.7472 107.953 102 108C99.9479 107.126 98.2528 107.047 96 107z"/>
<path style="fill:#c3c3c3; stroke:none;" d="M93 108C96.7668 110.256 100.757 109.783 105 110.285C117.937 111.817 130.985 110 144 110C129.293 102.932 108.63 107.957 93 108z"/>
<path style="fill:#e2e2e2; stroke:none;" d="M131 107C132.769 107.779 134.036 107.912 136 108C134.231 107.221 132.964 107.088 131 107z"/>
<path style="fill:#898989; stroke:none;" d="M187.667 107.333C187.222 107.778 188.278 107.722 188.333 107.667C188.778 107.222 187.722 107.278 187.667 107.333z"/>
<path style="fill:#666666; stroke:none;" d="M190 107C194.72 108.981 200.92 108 206 108L240 108C235.28 106.019 229.08 107 224 107L190 107z"/>
<path style="fill:#bebebe; stroke:none;" d="M240 107L241 108L240 107z"/>
<path style="fill:#898989; stroke:none;" d="M268.667 107.333C268.222 107.778 269.278 107.722 269.333 107.667C269.778 107.222 268.722 107.278 268.667 107.333z"/>
<path style="fill:#a5a5a5; stroke:none;" d="M320 107L321 108L320 107z"/>
<path style="fill:#e1e1e1; stroke:none;" d="M321.667 107.333C321.222 107.778 322.278 107.722 322.333 107.667C322.778 107.222 321.722 107.278 321.667 107.333z"/>
<path style="fill:#dddddd; stroke:none;" d="M139 108C140.248 108.685 140.548 108.749 142 109C140.752 108.315 140.452 108.251 139 108z"/>
<path style="fill:#f0f0f0; stroke:none;" d="M180 108L180 148C180 152.241 178.601 159.03 182 162C179.947 153.376 181 143.826 181 135C181 126.174 179.947 116.624 182 108L180 108z"/>
<path style="fill:#181818; stroke:none;" d="M183 108L183 116C184.161 113.23 184.161 110.77 183 108z"/>
<path style="fill:#000000; stroke:none;" d="M184 108L184 162L239 162L239 108L184 108z"/>
<path style="fill:#383838; stroke:none;" d="M239 108L239 162C240.875 157.531 240 151.809 240 147L240 121C240 116.74 240.661 111.959 239 108z"/>
<path style="fill:#a7a7a7; stroke:none;" d="M263 108C261.305 115.12 262 122.719 262 130C262 140.715 261.656 151.367 263 162C264.619 157.852 263.007 152.471 263 148C262.985 138.667 262.956 129.333 263.001 120C263.02 116.08 264.316 111.67 263 108z"/>
<path style="fill:#000000; stroke:none;" d="M264 108L264 162L302 162L302 155L272 155L272 126C272 122.694 271.019 117.188 273.603 114.603C276.188 112.019 281.694 113 285 113C294.722 113 304.305 114 314 114C314 122.073 315.921 129.995 315.921 138C315.921 145.942 314.632 154.071 314.09 162C313.388 172.246 314 182.73 314 193L277 193L277 196L322 196L322 108L264 108z"/>
<path style="fill:#818181; stroke:none;" d="M322 108L322 196C324.701 189.564 323 179.951 323 173L323 129C323 122.58 324.497 113.951 322 108z"/>
<path style="fill:#c7c7c7; stroke:none;" d="M323 108L323 192C326.637 185.16 324.36 177.311 324.039 170C323.448 156.495 323.448 142.505 324.039 129C324.348 121.948 326.509 114.601 323 108z"/>
<path style="fill:#acacac; stroke:none;" d="M181 109L182 110L181 109z"/>
<path style="fill:#c1c1c1; stroke:none;" d="M240 109L241 110L240 109z"/>
<path style="fill:#cecece; stroke:none;" d="M89 110L89 118C90.9447 115.103 90.9447 112.897 89 110z"/>
<path style="fill:#a7a7a7; stroke:none;" d="M91 110L91 118C92.1614 115.23 92.1614 112.77 91 110z"/>
<path style="fill:#434343; stroke:none;" d="M100.667 110.333C100.222 110.778 101.278 110.722 101.333 110.667C101.778 110.222 100.722 110.278 100.667 110.333z"/>
<path style="fill:#747474; stroke:none;" d="M102 110C103.248 110.685 103.548 110.749 105 111C103.752 110.315 103.452 110.251 102 110z"/>
<path style="fill:#a6a6a6; stroke:none;" d="M105.667 110.333C105.222 110.778 106.278 110.722 106.333 110.667C106.778 110.222 105.722 110.278 105.667 110.333z"/>
<path style="fill:#a3a3a3; stroke:none;" d="M124 110C125.248 110.685 125.548 110.749 127 111C125.752 110.315 125.452 110.251 124 110z"/>
<path style="fill:#7f7f7f; stroke:none;" d="M127 110C128.248 110.685 128.548 110.749 130 111C128.752 110.315 128.452 110.251 127 110z"/>
<path style="fill:#525252; stroke:none;" d="M130 110C132.613 111.098 135.165 110.993 138 111C135.387 109.902 132.835 110.007 130 110z"/>
<path style="fill:#1f1f1f; stroke:none;" d="M138 110C140.332 110.985 142.457 110.981 145 111C142.668 110.015 140.543 110.019 138 110z"/>
<path style="fill:#cfcfcf; stroke:none;" d="M146 110L146 162C151.472 150.886 150.365 135.962 149.169 124C148.676 119.073 148.648 114.335 146 110z"/>
<path style="fill:#535353; stroke:none;" d="M181 110L181 160C183.308 155.659 183 150.812 183 146C183.001 135.534 186.004 119.413 181 110z"/>
<path style="fill:#7c7c7c; stroke:none;" d="M240 110L241 111L240 110z"/>
<path style="fill:#2c2c2c; stroke:none;" d="M112 111C114.332 111.985 116.457 111.981 119 112C116.668 111.015 114.543 111.019 112 111z"/>
<path style="fill:#1b1b1b; stroke:none;" d="M240 111L240 159C244.232 151.054 243 140.712 243 132C243 124.925 243.438 117.419 240 111z"/>
<path style="fill:#bbbbbb; stroke:none;" d="M182 112L183 113L182 112z"/>
<path style="fill:#6b6b6b; stroke:none;" d="M263 112L263 154C264.552 150.301 264 145.983 264 142C264 133.203 266.407 120.118 263 112z"/>
<path style="fill:#8f8f8f; stroke:none;" d="M182 113L183 114L182 113z"/>
<path style="fill:#2d2d2d; stroke:none;" d="M203 113C206.432 114.44 210.3 114 214 114C210.568 112.56 206.7 113 203 113z"/>
<path style="fill:#1a1a1a; stroke:none;" d="M214 113C216.613 114.098 219.165 113.993 222 114C219.387 112.902 216.836 113.007 214 113z"/>
<path style="fill:#9a9a9a; stroke:none;" d="M241 113L242 114L241 113z"/>
<path style="fill:#111111; stroke:none;" d="M273 113C275.613 114.098 278.165 113.993 281 114C278.387 112.902 275.836 113.007 273 113z"/>
<path style="fill:#2f2f2f; stroke:none;" d="M281 113C287.202 115.603 296.298 114 303 114C296.798 111.397 287.702 113 281 113z"/>
<path style="fill:#262626; stroke:none;" d="M193 114C194.248 114.685 194.549 114.749 196 115C194.752 114.315 194.452 114.251 193 114z"/>
<path style="fill:#3f3f3f; stroke:none;" d="M196 114C199.27 116.477 202.999 116 207 116L228 116C219.429 111.443 205.509 114 196 114z"/>
<path style="fill:#626262; stroke:none;" d="M241 114L242 115L241 114z"/>
<path style="fill:#b3b3b3; stroke:none;" d="M272 114L272 154C274.409 153.728 276.581 153.799 279 154C276.958 152.584 275.489 152.255 273 152C274.097 143.854 275.484 136.322 274.91 128C274.607 123.588 272.487 118.893 275 115C273.752 114.315 273.452 114.251 272 114z"/>
<path style="fill:#3f3f3f; stroke:none;" d="M275 114C284.42 119.008 300.52 116 311 116C301.58 110.992 285.48 114 275 114z"/>
<path style="fill:#909090; stroke:none;" d="M307 114C308.248 114.685 308.548 114.749 310 115C308.752 114.315 308.452 114.251 307 114z"/>
<path style="fill:#fefefe; stroke:none;" d="M310 114C311.248 114.685 311.548 114.749 313 115C311.752 114.315 311.452 114.251 310 114z"/>
<path style="fill:#b4b4b4; stroke:none;" d="M313 114C312.735 116.388 312.857 118.594 313 121C314.059 118.466 314.059 116.534 313 114z"/>
<path style="fill:#202020; stroke:none;" d="M228.667 115.333C228.222 115.778 229.278 115.722 229.333 115.667C229.778 115.222 228.722 115.278 228.667 115.333z"/>
<path style="fill:#969696; stroke:none;" d="M277.667 115.333C277.222 115.778 278.278 115.722 278.333 115.667C278.778 115.222 277.722 115.278 277.667 115.333z"/>
<path style="fill:#717171; stroke:none;" d="M311 115L312 116L311 115z"/>
<path style="fill:#333333; stroke:none;" d="M191 116L191 144C191 147.654 189.779 152.096 194 153C187.898 142.028 195.722 127.254 191 116z"/>
<path style="fill:#fefefe; stroke:none;" d="M192 116L192 151L231 152L231 116L192 116z"/>
<path style="fill:#c9c9c9; stroke:none;" d="M281 116C282.248 116.685 282.548 116.749 284 117C282.752 116.315 282.452 116.251 281 116z"/>
<path style="fill:#9d9d9d; stroke:none;" d="M284 116C285.769 116.779 287.036 116.912 289 117C287.231 116.221 285.964 116.088 284 116z"/>
<path style="fill:#727272; stroke:none;" d="M289 116C291.613 117.098 294.165 116.993 297 117C294.387 115.902 291.835 116.007 289 116z"/>
<path style="fill:#acacac; stroke:none;" d="M297 116C299.613 117.098 302.165 116.993 305 117C302.387 115.902 299.836 116.007 297 116z"/>
<path style="fill:#d9d9d9; stroke:none;" d="M305 116C307.528 117.092 310.302 117.349 313 118C310.896 115.591 308.094 116.01 305 116z"/>
<path style="fill:#343434; stroke:none;" d="M101 117C102.248 117.685 102.548 117.749 104 118C102.752 117.315 102.452 117.251 101 117z"/>
<path style="fill:#646464; stroke:none;" d="M104 117C106.332 117.985 108.457 117.981 111 118C108.668 117.015 106.543 117.019 104 117z"/>
<path style="fill:#949494; stroke:none;" d="M111 117C112.248 117.685 112.548 117.749 114 118C112.752 117.315 112.452 117.251 111 117z"/>
<path style="fill:#afafaf; stroke:none;" d="M114 117C115.248 117.685 115.548 117.749 117 118C115.752 117.315 115.452 117.251 114 117z"/>
<path style="fill:#909090; stroke:none;" d="M117 117C118.248 117.685 118.548 117.749 120 118C118.752 117.315 118.452 117.251 117 117z"/>
<path style="fill:#6e6e6e; stroke:none;" d="M120 117C121.248 117.685 121.548 117.749 123 118C121.752 117.315 121.452 117.251 120 117z"/>
<path style="fill:#4b4b4b; stroke:none;" d="M123 117C124.248 117.685 124.548 117.749 126 118C124.752 117.315 124.452 117.251 123 117z"/>
<path style="fill:#3b3b3b; stroke:none;" d="M231 117L231 150C235.775 142.041 235.775 124.959 231 117z"/>
<path style="fill:#aaaaaa; stroke:none;" d="M242 117L243 118L242 117z"/>
<path style="fill:#cacaca; stroke:none;" d="M311 117L311 190C313.528 185.628 312 178.067 312 173L312 134C312 128.933 313.528 121.372 311 117z"/>
<path style="fill:#ebebeb; stroke:none;" d="M93 118C97.3196 121.002 102.875 120.992 108 121C116.335 121.013 124.778 121.526 133 120C129.162 117.378 124.51 118 120 118L93 118z"/>
<path style="fill:#a2a2a2; stroke:none;" d="M135 118L135 147C137.338 141.428 135.806 133.99 136.039 128C136.182 124.315 136.88 121.299 135 118z"/>
<path style="fill:#fefefe; stroke:none;" d="M136 118L136 121C136.696 119.446 136.696 119.554 136 118z"/>
<path style="fill:#5f5f5f; stroke:none;" d="M137 118L137 127C138.256 124.006 138.256 120.994 137 118z"/>
<path style="fill:#7f7f7f; stroke:none;" d="M242 118L243 119L242 118z"/>
<path style="fill:#8f8f8f; stroke:none;" d="M312 119L312 187C314.866 181.61 314 174.94 314 169C314 157.62 315.131 146.35 314.996 135C314.936 129.955 314.882 123.218 312 119z"/>
<path style="fill:#e5e5e5; stroke:none;" d="M149 122L149 127C149.83 124.969 149.83 124.03 149 122z"/>
<path style="fill:#d1d1d1; stroke:none;" d="M243.333 122.667C243.278 122.722 243.222 123.778 243.667 123.333C243.722 123.278 243.778 122.222 243.333 122.667z"/>
<path style="fill:#d2d2d2; stroke:none;" d="M274 122L274 125C274.696 123.446 274.696 123.554 274 122z"/>
<path style="fill:#8b8b8b; stroke:none;" d="M136 123C136 132.431 135.74 141.622 135 151C139.332 144.105 139.837 130.217 136 123z"/>
<path style="fill:#191919; stroke:none;" d="M233 123L233 126C233.696 124.446 233.696 124.554 233 123z"/>
<path style="fill:#aaaaaa; stroke:none;" d="M243.333 124.667C243.278 124.722 243.222 125.778 243.667 125.333C243.722 125.278 243.778 124.222 243.333 124.667z"/>
<path style="fill:#dddddd; stroke:none;" d="M324 124L324 175C325.769 170.785 325 165.536 325 161L325 137C325 132.74 325.661 127.959 324 124z"/>
<path style="fill:#3d3d3d; stroke:none;" d="M314.333 125.667C314.278 125.722 314.222 126.778 314.667 126.333C314.722 126.278 314.778 125.222 314.333 125.667z"/>
<path style="fill:#8a8a8a; stroke:none;" d="M243 126L243 129C243.696 127.446 243.696 127.554 243 126z"/>
<path style="fill:#d8d8d8; stroke:none;" d="M275 127L275 139C276.512 135.396 276.512 130.604 275 127z"/>
<path style="fill:#626262; stroke:none;" d="M314.333 127.667C314.278 127.722 314.222 128.778 314.667 128.333C314.722 128.278 314.778 127.222 314.333 127.667z"/>
<path style="fill:#4b4b4b; stroke:none;" d="M243 129L243 140C244.431 136.59 244.431 132.41 243 129z"/>
<path style="fill:#262626; stroke:none;" d="M138 130L138 138C139.161 135.23 139.161 132.77 138 130z"/>
<path style="fill:#131313; stroke:none;" d="M315 133L315 143C316.346 139.793 316.346 136.207 315 133z"/>
<path style="fill:#d8d8d8; stroke:none;" d="M172 140L172 154C173.667 150.028 173.667 143.972 172 140z"/>
<path style="fill:#7b7b7b; stroke:none;" d="M243 140L243 143C243.696 141.446 243.696 141.554 243 140z"/>
<path style="fill:#212121; stroke:none;" d="M233 141L233 144C233.696 142.446 233.696 142.554 233 141z"/>
<path style="fill:#a9a9a9; stroke:none;" d="M243 143L243 146C243.696 144.446 243.696 144.554 243 143z"/>
<path style="fill:#e1e1e1; stroke:none;" d="M274.333 144.667C274.278 144.722 274.222 145.778 274.667 145.333C274.722 145.278 274.778 144.222 274.333 144.667z"/>
<path style="fill:#5f5f5f; stroke:none;" d="M137 145L137 154C138.256 151.006 138.256 147.994 137 145z"/>
<path style="fill:#e5e5e5; stroke:none;" d="M243.333 146.667C243.278 146.722 243.222 147.778 243.667 147.333C243.722 147.278 243.778 146.222 243.333 146.667z"/>
<path style="fill:#e6e6e6; stroke:none;" d="M136.333 148.667C136.278 148.722 136.222 149.778 136.667 149.333C136.722 149.278 136.778 148.222 136.333 148.667z"/>
<path style="fill:#646464; stroke:none;" d="M314 148L314 151C314.696 149.446 314.696 149.554 314 148z"/>
<path style="fill:#d4d4d4; stroke:none;" d="M108 150C111.163 151.327 114.586 151 118 151C114.837 149.673 111.414 150 108 150z"/>
<path style="fill:#7c7c7c; stroke:none;" d="M242 150L242 153C242.696 151.446 242.696 151.554 242 150z"/>
<path style="fill:#e6e6e6; stroke:none;" d="M81 153L87 152C84.4708 150.961 82.8244 150.907 81 153z"/>
<path style="fill:#b9b9b9; stroke:none;" d="M87 151C89.8897 152.213 92.8741 151.998 96 152C93.1103 150.787 90.1259 151.002 87 151z"/>
<path style="fill:#929292; stroke:none;" d="M96 151C97.2483 151.685 97.5484 151.749 99 152C97.7517 151.315 97.4516 151.251 96 151z"/>
<path style="fill:#686868; stroke:none;" d="M99 151C100.769 151.779 102.036 151.912 104 152C102.231 151.221 100.964 151.088 99 151z"/>
<path style="fill:#575757; stroke:none;" d="M83 152C88.3098 155.202 94.9725 155 101 155C112.08 155.001 122.976 154.473 134 154C130.355 151.817 126.146 151.97 122 151.424C109.256 149.746 95.8523 152 83 152z"/>
<path style="fill:#797979; stroke:none;" d="M122 151C123.248 151.685 123.548 151.749 125 152C123.752 151.315 123.452 151.251 122 151z"/>
<path style="fill:#b6b6b6; stroke:none;" d="M125 151C126.248 151.685 126.548 151.749 128 152C126.752 151.315 126.452 151.251 125 151z"/>
<path style="fill:#c9c9c9; stroke:none;" d="M135 151L136 152L135 151z"/>
<path style="fill:#e0e0e0; stroke:none;" d="M192 151C194.332 151.985 196.457 151.981 199 152C196.668 151.015 194.543 151.019 192 151z"/>
<path style="fill:#c7c7c7; stroke:none;" d="M199 151C201.613 152.098 204.165 151.993 207 152C204.387 150.902 201.836 151.007 199 151z"/>
<path style="fill:#ababab; stroke:none;" d="M207 151C209.89 152.213 212.874 151.998 216 152C213.11 150.787 210.126 151.002 207 151z"/>
<path style="fill:#ebebeb; stroke:none;" d="M216 151C217.769 151.779 219.036 151.912 221 152C219.231 151.221 217.964 151.088 216 151z"/>
<path style="fill:#494949; stroke:none;" d="M314 151L314 154C314.696 152.446 314.696 152.554 314 151z"/>
<path style="fill:#a3a3a3; stroke:none;" d="M82 152L83 153L82 152z"/>
<path style="fill:#8e8e8e; stroke:none;" d="M131 152L132 153L131 152z"/>
<path style="fill:#c1c1c1; stroke:none;" d="M132 152L133 153L132 152z"/>
<path style="fill:#181818; stroke:none;" d="M183 152L183 162C184.346 158.793 184.346 155.207 183 152z"/>
<path style="fill:#575757; stroke:none;" d="M194 152C203.2 156.421 216.989 154 227 154C218.215 149.33 203.753 152 194 152z"/>
<path style="fill:#1e1e1e; stroke:none;" d="M223 152C224.506 152.683 225.315 152.826 227 153C223.343 154.081 219.801 154 216 154C220.974 156.087 227.638 155 233 155C231.494 154.317 230.685 154.174 229 154L231 153C228.387 151.902 225.835 152.007 223 152z"/>
<path style="fill:#c7c7c7; stroke:none;" d="M281 152L282 153L281 152z"/>
<path style="fill:#838383; stroke:none;" d="M282 152L283 153L282 152z"/>
<path style="fill:#3f3f3f; stroke:none;" d="M283.667 152.333C283.222 152.778 284.278 152.722 284.333 152.667C284.778 152.222 283.722 152.278 283.667 152.333z"/>
<path style="fill:#5a5a5a; stroke:none;" d="M285 152C287.213 153.393 288.391 153.374 291 153C288.948 152.126 287.253 152.047 285 152z"/>
<path style="fill:#acacac; stroke:none;" d="M291 152C292.248 152.685 292.548 152.749 294 153C292.752 152.315 292.452 152.251 291 152z"/>
<path style="fill:#fefefe; stroke:none;" d="M81 153C82.5061 153.683 83.3148 153.826 85 154C83.4939 153.317 82.6852 153.174 81 153z"/>
<path style="fill:#a9a9a9; stroke:none;" d="M85 153L86 154L85 153z"/>
<path style="fill:#838383; stroke:none;" d="M134 153L135 154L134 153z"/>
<path style="fill:#bcbcbc; stroke:none;" d="M135 153L136 154L135 153z"/>
<path style="fill:#363636; stroke:none;" d="M197.667 153.333C197.222 153.778 198.278 153.722 198.333 153.667C198.778 153.222 197.722 153.278 197.667 153.333z"/>
<path style="fill:#fefefe; stroke:none;" d="M273 153C274.248 153.685 274.548 153.749 276 154C274.752 153.315 274.452 153.251 273 153z"/>
<path style="fill:#c7c7c7; stroke:none;" d="M279 153L280 154L279 153z"/>
<path style="fill:#919191; stroke:none;" d="M285.667 153.333C285.222 153.778 286.278 153.722 286.333 153.667C286.778 153.222 285.722 153.278 285.667 153.333z"/>
<path style="fill:#232323; stroke:none;" d="M289 153C291.052 153.874 292.747 153.953 295 154C292.948 153.126 291.253 153.047 289 153z"/>
<path style="fill:#3f3f3f; stroke:none;" d="M272 154C280.367 157.511 293.924 155 303 155C294.553 151.364 281.17 154 272 154z"/>
<path style="fill:#9e9e9e; stroke:none;" d="M296 153L297 154L296 153z"/>
<path style="fill:#3f3f3f; stroke:none;" d="M81 154C84.1633 155.327 87.5856 155 91 155C87.8367 153.673 84.4144 154 81 154z"/>
<path style="fill:#494949; stroke:none;" d="M128 154C130.89 155.213 133.874 154.998 137 155C134.11 153.787 131.126 154.002 128 154z"/>
<path style="fill:#252525; stroke:none;" d="M201 154C203.613 155.098 206.165 154.993 209 155C206.387 153.902 203.835 154.007 201 154z"/>
<path style="fill:#3f3f3f; stroke:none;" d="M209 154C211.332 154.985 213.457 154.981 216 155C213.668 154.015 211.543 154.019 209 154z"/>
<path style="fill:#888888; stroke:none;" d="M263 154L263 157C263.696 155.446 263.696 155.554 263 154z"/>
<path style="fill:#181818; stroke:none;" d="M314 154L314 159C314.83 156.969 314.83 156.031 314 154z"/>
<path style="fill:#2b2b2b; stroke:none;" d="M98 155C102.471 156.876 108.183 156 113 156C108.529 154.124 102.817 155 98 155z"/>
<path style="fill:#5e5e5e; stroke:none;" d="M241 155L242 156L241 155z"/>
<path style="fill:#282828; stroke:none;" d="M302 155L302 162C303.805 159.31 303.91 157.623 302 155z"/>
<path style="fill:#aaaaaa; stroke:none;" d="M303 155L304 156L303 155z"/>
<path style="fill:#8b8b8b; stroke:none;" d="M182 156L183 157L182 156z"/>
<path style="fill:#959595; stroke:none;" d="M241 156L242 157L241 156z"/>
<path style="fill:#acacac; stroke:none;" d="M71 157L72 158L71 157z"/>
<path style="fill:#e2e2e2; stroke:none;" d="M171.333 157.667C171.278 157.722 171.222 158.778 171.667 158.333C171.722 158.278 171.778 157.222 171.333 157.667z"/>
<path style="fill:#b6b6b6; stroke:none;" d="M182 157L183 158L182 157z"/>
<path style="fill:#cfcfcf; stroke:none;" d="M241 157L242 158L241 157z"/>
<path style="fill:#767676; stroke:none;" d="M240 159L241 160L240 159z"/>
<path style="fill:#a9a9a9; stroke:none;" d="M70 160L71 161L70 160M181 160L182 161L181 160z"/>
<path style="fill:#bcbcbc; stroke:none;" d="M240 160L241 161L240 160z"/>
<path style="fill:#969696; stroke:none;" d="M303 160L304 161L303 160z"/>
<path style="fill:#bebebe; stroke:none;" d="M72 162C78.4361 164.701 88.0491 163 95 163L146 163C139.564 160.299 129.951 162 123 162L72 162z"/>
<path style="fill:#d5d5d5; stroke:none;" d="M161 162C163.89 163.213 166.874 162.998 170 163C167.11 161.787 164.126 162.002 161 162M183 162C188.216 164.189 195.381 163 201 163L240 163C234.784 160.811 227.619 162 222 162L183 162z"/>
<path style="fill:#bebebe; stroke:none;" d="M264 162C267.959 163.661 272.74 163 277 163L303 163C299.041 161.339 294.26 162 290 162L264 162z"/>
<path style="fill:#b4b4b4; stroke:none;" d="M313 183L312 192C314.641 189.693 314.296 186.089 313 183z"/>
<path style="fill:#a7a7a7; stroke:none;" d="M284 190L285 191L284 190z"/>
<path style="fill:#6b6b6b; stroke:none;" d="M285 190C287.432 191.317 289.248 191.277 292 191C289.668 190.015 287.543 190.019 285 190z"/>
<path style="fill:#3c3c3c; stroke:none;" d="M277 192C280.959 193.661 285.74 193 290 193L314 193C302.438 188.103 288.97 192 277 192z"/>
<path style="fill:#6b6b6b; stroke:none;" d="M296 190C297.769 190.779 299.036 190.912 301 191C299.231 190.221 297.964 190.088 296 190z"/>
<path style="fill:#a8a8a8; stroke:none;" d="M301 190C302.248 190.685 302.548 190.749 304 191C302.752 190.315 302.451 190.251 301 190M280.667 191.333C280.222 191.778 281.278 191.722 281.333 191.667C281.778 191.222 280.722 191.278 280.667 191.333z"/>
<path style="fill:#9c9c9c; stroke:none;" d="M286.667 191.333C286.222 191.778 287.278 191.722 287.333 191.667C287.778 191.222 286.722 191.278 286.667 191.333z"/>
<path style="fill:#838383; stroke:none;" d="M306 191L307 192L306 191z"/>
<path style="fill:#c1c1c1; stroke:none;" d="M307 191L308 192L307 191z"/>
<path style="fill:#7f7f7f; stroke:none;" d="M311 191L312 192L311 191z"/>
<path style="fill:#afafaf; stroke:none;" d="M276 192C275.598 193.944 275.598 194.056 276 196C276.71 194.24 276.71 193.76 276 192z"/>
<path style="fill:#e5e5e5; stroke:none;" d="M323.333 192.667C323.278 192.722 323.222 193.778 323.667 193.333C323.722 193.278 323.778 192.222 323.333 192.667z"/>
<path style="fill:#bebebe; stroke:none;" d="M277 196C281.469 197.875 287.191 197 292 197L322 197C317.531 195.125 311.809 196 307 196L277 196z"/>
</svg>
